<?xml version="1.0" encoding="UTF-8" standalone="no"?>
<!DOCTYPE svg PUBLIC "-//W3C//DTD SVG 1.1//EN" "http://www.w3.org/Graphics/SVG/1.1/DTD/svg11.dtd">
<svg width="100%" height="100%" viewBox="0 0 213 35" version="1.1" xmlns="http://www.w3.org/2000/svg" xmlns:xlink="http://www.w3.org/1999/xlink" xml:space="preserve" xmlns:serif="http://www.serif.com/" style="fill-rule:evenodd;clip-rule:evenodd;stroke-linejoin:round;stroke-miterlimit:2;">
    <g transform="matrix(1,0,0,1,-215.99,-500)">
        <g transform="matrix(1,0,0,1,-72.2872,35.6717)">
            <g transform="matrix(58.3333,0,0,58.3333,288.492,496.509)">
                <path d="M0.485,-0.156C0.484,-0.159 0.482,-0.159 0.48,-0.158L0.294,-0.082L0.453,-0.506L0.43,-0.506L0.42,-0.47L0.27,-0.072L0.216,-0.05L0.068,-0.47L0.058,-0.506L0.035,-0.506L0.197,-0.043L-0.001,0.038C-0.004,0.039 -0.004,0.041 -0.003,0.044C-0.003,0.045 -0.002,0.046 0,0.046L0.002,0.046L0.483,-0.15C0.486,-0.151 0.486,-0.153 0.485,-0.156ZM0.481,0.041L0.48,0.042L0.481,0.043C0.482,0.043 0.483,0.043 0.483,0.042C0.482,0.041 0.482,0.041 0.481,0.041ZM0.481,-0.009C0.48,-0.009 0.48,-0.008 0.48,-0.007C0.48,-0.006 0.48,-0.005 0.481,-0.005C0.482,-0.005 0.483,-0.006 0.483,-0.007C0.483,-0.008 0.482,-0.009 0.481,-0.009ZM0.481,-0.059C0.48,-0.059 0.479,-0.058 0.479,-0.056C0.479,-0.054 0.48,-0.053 0.481,-0.053C0.483,-0.053 0.484,-0.054 0.484,-0.056C0.484,-0.058 0.483,-0.059 0.481,-0.059ZM0.481,-0.108C0.479,-0.108 0.478,-0.107 0.478,-0.105C0.478,-0.103 0.479,-0.102 0.481,-0.102C0.484,-0.102 0.485,-0.103 0.485,-0.105C0.485,-0.107 0.484,-0.108 0.481,-0.108ZM0.433,0.041L0.432,0.042L0.433,0.043C0.434,0.043 0.434,0.043 0.434,0.042C0.434,0.041 0.434,0.041 0.433,0.041ZM0.433,-0.009C0.432,-0.009 0.432,-0.008 0.432,-0.007C0.432,-0.006 0.432,-0.005 0.433,-0.005C0.434,-0.005 0.435,-0.006 0.435,-0.007C0.435,-0.008 0.434,-0.009 0.433,-0.009ZM0.433,-0.059C0.432,-0.059 0.431,-0.058 0.431,-0.056C0.431,-0.054 0.432,-0.053 0.433,-0.053C0.435,-0.053 0.436,-0.054 0.436,-0.056C0.436,-0.058 0.435,-0.059 0.433,-0.059ZM0.433,-0.108C0.431,-0.108 0.43,-0.107 0.43,-0.105C0.43,-0.103 0.431,-0.102 0.433,-0.102C0.436,-0.102 0.437,-0.103 0.437,-0.105C0.437,-0.107 0.436,-0.108 0.433,-0.108ZM0.385,0.041L0.384,0.042L0.385,0.043C0.386,0.043 0.386,0.043 0.386,0.042C0.386,0.041 0.386,0.041 0.385,0.041ZM0.385,-0.009C0.384,-0.009 0.383,-0.008 0.383,-0.007C0.383,-0.006 0.384,-0.005 0.385,-0.005C0.386,-0.005 0.387,-0.006 0.387,-0.007C0.387,-0.008 0.386,-0.009 0.385,-0.009ZM0.385,-0.059C0.384,-0.059 0.383,-0.058 0.383,-0.056C0.383,-0.054 0.384,-0.053 0.385,-0.053C0.387,-0.053 0.388,-0.054 0.388,-0.056C0.388,-0.058 0.387,-0.059 0.385,-0.059ZM0.337,0.041L0.336,0.042L0.337,0.043C0.338,0.043 0.338,0.043 0.338,0.042C0.338,0.041 0.338,0.041 0.337,0.041ZM0.337,-0.009C0.336,-0.009 0.335,-0.008 0.335,-0.007C0.335,-0.006 0.336,-0.005 0.337,-0.005C0.338,-0.005 0.339,-0.006 0.339,-0.007C0.339,-0.008 0.338,-0.009 0.337,-0.009ZM0.337,-0.059C0.336,-0.059 0.335,-0.058 0.335,-0.056C0.335,-0.054 0.336,-0.053 0.337,-0.053C0.339,-0.053 0.34,-0.054 0.34,-0.056C0.34,-0.058 0.339,-0.059 0.337,-0.059ZM0.289,0.041L0.288,0.042C0.288,0.043 0.288,0.043 0.289,0.043C0.29,0.043 0.29,0.043 0.29,0.042C0.29,0.041 0.29,0.041 0.289,0.041ZM0.289,-0.009C0.288,-0.009 0.287,-0.008 0.287,-0.007C0.287,-0.006 0.288,-0.005 0.289,-0.005C0.29,-0.005 0.291,-0.006 0.291,-0.007C0.291,-0.008 0.29,-0.009 0.289,-0.009ZM0.241,0.041L0.24,0.042C0.24,0.043 0.24,0.043 0.241,0.043C0.242,0.043 0.242,0.043 0.242,0.042C0.242,0.041 0.242,0.041 0.241,0.041ZM0.241,-0.009C0.24,-0.009 0.239,-0.008 0.239,-0.007C0.239,-0.006 0.24,-0.005 0.241,-0.005C0.242,-0.005 0.243,-0.006 0.243,-0.007C0.243,-0.008 0.242,-0.009 0.241,-0.009ZM0.194,0.042L0.193,0.041L0.192,0.042C0.192,0.043 0.192,0.043 0.193,0.043C0.194,0.043 0.194,0.043 0.194,0.042ZM0.193,-0.009C0.192,-0.009 0.191,-0.008 0.191,-0.007C0.191,-0.006 0.192,-0.005 0.193,-0.005C0.194,-0.005 0.195,-0.006 0.195,-0.007C0.195,-0.008 0.194,-0.009 0.193,-0.009ZM0.146,0.042L0.145,0.041L0.144,0.042C0.144,0.043 0.144,0.043 0.145,0.043C0.146,0.043 0.146,0.043 0.146,0.042ZM0.098,0.042L0.097,0.041L0.096,0.042C0.096,0.043 0.096,0.043 0.097,0.043C0.098,0.043 0.098,0.043 0.098,0.042Z" style="fill:rgb(10,77,96);fill-rule:nonzero;"/>
            </g>
            <g transform="matrix(58.3333,0,0,58.3333,316.55,496.509)">
                <path d="M0.19,0.041L0.189,0.042C0.189,0.043 0.189,0.043 0.19,0.043C0.191,0.043 0.191,0.043 0.191,0.042C0.191,0.041 0.191,0.041 0.19,0.041ZM0.144,0.042L0.143,0.041L0.142,0.042C0.142,0.043 0.142,0.043 0.143,0.043C0.144,0.043 0.144,0.043 0.144,0.042ZM0.095,0.041L0.094,0.042L0.095,0.043C0.096,0.043 0.096,0.043 0.096,0.042C0.096,0.041 0.096,0.041 0.095,0.041ZM0.049,0.042L0.048,0.041L0.047,0.042C0.047,0.043 0.047,0.043 0.048,0.043C0.049,0.043 0.049,0.043 0.049,0.042ZM0.048,-0.009C0.047,-0.009 0.046,-0.008 0.046,-0.007C0.046,-0.006 0.047,-0.005 0.048,-0.005C0.049,-0.005 0.05,-0.006 0.05,-0.007C0.05,-0.008 0.049,-0.009 0.048,-0.009ZM0.048,-0.059C0.046,-0.059 0.045,-0.058 0.045,-0.056C0.045,-0.054 0.046,-0.053 0.048,-0.053C0.049,-0.053 0.05,-0.054 0.05,-0.056C0.05,-0.058 0.049,-0.059 0.048,-0.059ZM0.108,-0L0.128,-0L0.128,-0.506L0.108,-0.506L0.108,-0ZM0.083,-0.08L0.083,-0.091L0.003,-0.157C0.001,-0.159 -0.001,-0.159 -0.003,-0.157C-0.004,-0.154 -0.004,-0.152 -0.002,-0.151L0.083,-0.08ZM0.24,0.039L0.153,-0.033L0.153,-0.022L0.235,0.045L0.237,0.046C0.239,0.046 0.24,0.046 0.241,0.045C0.242,0.042 0.242,0.04 0.24,0.039Z" style="fill:rgb(10,77,96);fill-rule:nonzero;"/>
            </g>
            <g transform="matrix(58.3333,0,0,58.3333,330.375,496.509)">
                <path d="M0.407,-0.551C0.404,-0.552 0.402,-0.552 0.401,-0.549L0.209,-0.269C0.194,-0.276 0.18,-0.283 0.166,-0.29C0.152,-0.297 0.14,-0.305 0.129,-0.314C0.118,-0.322 0.11,-0.332 0.103,-0.343C0.096,-0.354 0.093,-0.366 0.093,-0.38C0.093,-0.393 0.096,-0.406 0.102,-0.419C0.107,-0.432 0.115,-0.443 0.126,-0.454C0.137,-0.464 0.15,-0.472 0.166,-0.479C0.181,-0.485 0.199,-0.488 0.22,-0.488C0.232,-0.488 0.245,-0.487 0.26,-0.484C0.274,-0.481 0.289,-0.477 0.304,-0.47L0.311,-0.473L0.312,-0.49C0.295,-0.497 0.278,-0.502 0.263,-0.505C0.248,-0.507 0.234,-0.508 0.222,-0.508C0.2,-0.508 0.18,-0.505 0.162,-0.498C0.143,-0.491 0.128,-0.482 0.115,-0.471C0.102,-0.46 0.091,-0.446 0.084,-0.431C0.077,-0.416 0.073,-0.399 0.073,-0.382C0.073,-0.364 0.077,-0.349 0.084,-0.336C0.091,-0.323 0.1,-0.311 0.111,-0.301C0.122,-0.29 0.136,-0.281 0.151,-0.273C0.166,-0.265 0.181,-0.257 0.196,-0.25L0.081,-0.083L0.089,-0.079L0.408,-0.545C0.409,-0.547 0.409,-0.549 0.407,-0.551ZM0.245,-0.252L0.232,-0.233C0.256,-0.221 0.277,-0.207 0.295,-0.192C0.312,-0.176 0.321,-0.155 0.321,-0.129C0.321,-0.115 0.318,-0.101 0.312,-0.088C0.305,-0.074 0.296,-0.062 0.285,-0.052C0.274,-0.041 0.26,-0.033 0.243,-0.026C0.226,-0.019 0.208,-0.016 0.187,-0.016C0.177,-0.016 0.166,-0.018 0.154,-0.021C0.142,-0.024 0.13,-0.029 0.118,-0.034C0.106,-0.039 0.095,-0.045 0.084,-0.052C0.073,-0.059 0.063,-0.065 0.054,-0.072L0.049,-0.072L0.047,-0.052C0.064,-0.039 0.085,-0.026 0.109,-0.015C0.133,-0.003 0.159,0.003 0.187,0.003C0.209,0.003 0.23,-0.001 0.249,-0.008C0.268,-0.015 0.284,-0.025 0.298,-0.037C0.311,-0.049 0.322,-0.063 0.33,-0.079C0.337,-0.095 0.341,-0.112 0.341,-0.13C0.341,-0.146 0.338,-0.16 0.333,-0.172C0.328,-0.184 0.321,-0.195 0.312,-0.205C0.303,-0.214 0.293,-0.223 0.282,-0.231C0.27,-0.238 0.258,-0.245 0.245,-0.252ZM0.041,-0.025L-0.003,0.04C-0.004,0.042 -0.004,0.044 -0.002,0.046L0,0.046C0.002,0.046 0.003,0.046 0.004,0.045L0.048,-0.02C0.047,-0.021 0.045,-0.022 0.041,-0.025ZM0.404,0.041L0.403,0.042L0.404,0.043C0.405,0.043 0.406,0.043 0.406,0.042C0.405,0.041 0.405,0.041 0.404,0.041ZM0.404,-0.009C0.403,-0.009 0.403,-0.008 0.403,-0.007C0.403,-0.006 0.403,-0.005 0.404,-0.005C0.405,-0.005 0.406,-0.006 0.406,-0.007C0.406,-0.008 0.405,-0.009 0.404,-0.009ZM0.404,-0.059C0.403,-0.059 0.402,-0.058 0.402,-0.056C0.402,-0.054 0.403,-0.053 0.404,-0.053C0.406,-0.053 0.407,-0.054 0.407,-0.056C0.407,-0.058 0.406,-0.059 0.404,-0.059ZM0.404,-0.108C0.402,-0.108 0.401,-0.107 0.401,-0.105C0.401,-0.103 0.402,-0.102 0.404,-0.102C0.407,-0.102 0.408,-0.103 0.408,-0.105C0.408,-0.107 0.407,-0.108 0.404,-0.108ZM0.404,-0.158C0.401,-0.158 0.4,-0.157 0.4,-0.154C0.4,-0.151 0.401,-0.15 0.404,-0.15C0.407,-0.15 0.408,-0.151 0.408,-0.154C0.408,-0.157 0.407,-0.158 0.404,-0.158ZM0.404,-0.208C0.401,-0.208 0.4,-0.206 0.4,-0.203C0.4,-0.2 0.401,-0.199 0.404,-0.199C0.407,-0.199 0.409,-0.2 0.409,-0.203C0.409,-0.206 0.407,-0.208 0.404,-0.208ZM0.404,-0.258C0.401,-0.258 0.399,-0.256 0.399,-0.252C0.399,-0.249 0.401,-0.247 0.404,-0.247C0.408,-0.247 0.41,-0.249 0.41,-0.252C0.41,-0.256 0.408,-0.258 0.404,-0.258ZM0.404,-0.308C0.4,-0.308 0.398,-0.306 0.398,-0.301C0.398,-0.297 0.4,-0.295 0.404,-0.295C0.409,-0.295 0.411,-0.297 0.411,-0.301C0.411,-0.306 0.409,-0.308 0.404,-0.308ZM0.404,-0.357C0.4,-0.357 0.398,-0.355 0.398,-0.351C0.398,-0.346 0.4,-0.344 0.404,-0.344C0.409,-0.344 0.411,-0.346 0.411,-0.351C0.411,-0.355 0.409,-0.357 0.404,-0.357ZM0.404,-0.407C0.399,-0.407 0.397,-0.405 0.397,-0.4C0.397,-0.395 0.399,-0.392 0.404,-0.392C0.409,-0.392 0.412,-0.395 0.412,-0.4C0.412,-0.405 0.409,-0.407 0.404,-0.407ZM0.404,-0.457C0.399,-0.457 0.396,-0.454 0.396,-0.449C0.396,-0.443 0.399,-0.44 0.404,-0.44C0.41,-0.44 0.413,-0.443 0.413,-0.449C0.413,-0.454 0.41,-0.457 0.404,-0.457ZM0.404,-0.507C0.398,-0.507 0.395,-0.504 0.395,-0.498C0.395,-0.492 0.398,-0.489 0.404,-0.489C0.41,-0.489 0.413,-0.492 0.413,-0.498C0.413,-0.504 0.41,-0.507 0.404,-0.507ZM0.354,0.041L0.353,0.042C0.353,0.043 0.353,0.043 0.354,0.043C0.355,0.043 0.355,0.043 0.355,0.042C0.355,0.041 0.355,0.041 0.354,0.041ZM0.354,-0.009C0.353,-0.009 0.352,-0.008 0.352,-0.007C0.352,-0.006 0.353,-0.005 0.354,-0.005C0.355,-0.005 0.356,-0.006 0.356,-0.007C0.356,-0.008 0.355,-0.009 0.354,-0.009ZM0.354,-0.059C0.352,-0.059 0.351,-0.058 0.351,-0.056C0.351,-0.054 0.352,-0.053 0.354,-0.053C0.356,-0.053 0.357,-0.054 0.357,-0.056C0.357,-0.058 0.356,-0.059 0.354,-0.059ZM0.354,-0.208C0.351,-0.208 0.349,-0.206 0.349,-0.203C0.349,-0.2 0.351,-0.199 0.354,-0.199C0.357,-0.199 0.359,-0.2 0.359,-0.203C0.359,-0.206 0.357,-0.208 0.354,-0.208ZM0.354,-0.258C0.351,-0.258 0.349,-0.256 0.349,-0.252C0.349,-0.249 0.351,-0.247 0.354,-0.247C0.357,-0.247 0.359,-0.249 0.359,-0.252C0.359,-0.256 0.357,-0.258 0.354,-0.258ZM0.354,-0.308C0.35,-0.308 0.348,-0.306 0.348,-0.301C0.348,-0.297 0.35,-0.295 0.354,-0.295C0.358,-0.295 0.36,-0.297 0.36,-0.301C0.36,-0.306 0.358,-0.308 0.354,-0.308ZM0.354,-0.357C0.349,-0.357 0.347,-0.355 0.347,-0.351C0.347,-0.346 0.349,-0.344 0.354,-0.344C0.359,-0.344 0.361,-0.346 0.361,-0.351C0.361,-0.355 0.359,-0.357 0.354,-0.357ZM0.354,-0.407C0.349,-0.407 0.346,-0.405 0.346,-0.4C0.346,-0.395 0.349,-0.392 0.354,-0.392C0.359,-0.392 0.362,-0.395 0.362,-0.4C0.362,-0.405 0.359,-0.407 0.354,-0.407ZM0.303,0.041L0.302,0.042L0.303,0.043C0.304,0.043 0.305,0.043 0.305,0.042C0.304,0.041 0.304,0.041 0.303,0.041ZM0.303,-0.009C0.302,-0.009 0.302,-0.008 0.302,-0.007C0.302,-0.006 0.302,-0.005 0.303,-0.005C0.304,-0.005 0.305,-0.006 0.305,-0.007C0.305,-0.008 0.304,-0.009 0.303,-0.009ZM0.303,-0.258C0.3,-0.258 0.298,-0.256 0.298,-0.252C0.298,-0.249 0.3,-0.247 0.303,-0.247C0.307,-0.247 0.309,-0.249 0.309,-0.252C0.309,-0.256 0.307,-0.258 0.303,-0.258ZM0.303,-0.308C0.299,-0.308 0.297,-0.306 0.297,-0.301C0.297,-0.297 0.299,-0.295 0.303,-0.295C0.308,-0.295 0.31,-0.297 0.31,-0.301C0.31,-0.306 0.308,-0.308 0.303,-0.308ZM0.303,-0.357C0.299,-0.357 0.297,-0.355 0.297,-0.351C0.297,-0.346 0.299,-0.344 0.303,-0.344C0.308,-0.344 0.31,-0.346 0.31,-0.351C0.31,-0.355 0.308,-0.357 0.303,-0.357ZM0.253,0.041L0.252,0.042C0.252,0.043 0.252,0.043 0.253,0.043C0.254,0.043 0.254,0.043 0.254,0.042C0.254,0.041 0.254,0.041 0.253,0.041ZM0.253,-0.108C0.251,-0.108 0.25,-0.107 0.25,-0.105C0.25,-0.103 0.251,-0.102 0.253,-0.102C0.255,-0.102 0.256,-0.103 0.256,-0.105C0.256,-0.107 0.255,-0.108 0.253,-0.108ZM0.253,-0.158C0.25,-0.158 0.249,-0.157 0.249,-0.154C0.249,-0.151 0.25,-0.15 0.253,-0.15C0.256,-0.15 0.257,-0.151 0.257,-0.154C0.257,-0.157 0.256,-0.158 0.253,-0.158ZM0.202,0.041L0.201,0.042L0.202,0.043C0.203,0.043 0.204,0.043 0.204,0.042C0.203,0.041 0.203,0.041 0.202,0.041ZM0.202,-0.059C0.201,-0.059 0.2,-0.058 0.2,-0.056C0.2,-0.054 0.201,-0.053 0.202,-0.053C0.204,-0.053 0.205,-0.054 0.205,-0.056C0.205,-0.058 0.204,-0.059 0.202,-0.059ZM0.202,-0.108C0.2,-0.108 0.199,-0.107 0.199,-0.105C0.199,-0.103 0.2,-0.102 0.202,-0.102C0.205,-0.102 0.206,-0.103 0.206,-0.105C0.206,-0.107 0.205,-0.108 0.202,-0.108ZM0.202,-0.158C0.199,-0.158 0.198,-0.157 0.198,-0.154C0.198,-0.151 0.199,-0.15 0.202,-0.15C0.205,-0.15 0.206,-0.151 0.206,-0.154C0.206,-0.157 0.205,-0.158 0.202,-0.158ZM0.202,-0.208C0.199,-0.208 0.198,-0.206 0.198,-0.203C0.198,-0.2 0.199,-0.199 0.202,-0.199C0.205,-0.199 0.207,-0.2 0.207,-0.203C0.207,-0.206 0.205,-0.208 0.202,-0.208ZM0.152,0.041L0.151,0.042C0.151,0.043 0.151,0.043 0.152,0.043C0.153,0.043 0.153,0.043 0.153,0.042C0.153,0.041 0.153,0.041 0.152,0.041ZM0.152,-0.059C0.15,-0.059 0.149,-0.058 0.149,-0.056C0.149,-0.054 0.15,-0.053 0.152,-0.053C0.154,-0.053 0.155,-0.054 0.155,-0.056C0.155,-0.058 0.154,-0.059 0.152,-0.059ZM0.152,-0.108C0.15,-0.108 0.149,-0.107 0.149,-0.105C0.149,-0.103 0.15,-0.102 0.152,-0.102C0.154,-0.102 0.155,-0.103 0.155,-0.105C0.155,-0.107 0.154,-0.108 0.152,-0.108ZM0.101,0.041L0.1,0.042L0.101,0.043C0.102,0.043 0.103,0.043 0.103,0.042C0.102,0.041 0.102,0.041 0.101,0.041ZM0.051,0.041L0.05,0.042C0.05,0.043 0.05,0.043 0.051,0.043C0.052,0.043 0.052,0.043 0.052,0.042C0.052,0.041 0.052,0.041 0.051,0.041Z" style="fill:rgb(10,77,96);fill-rule:nonzero;"/>
            </g>
            <g transform="matrix(58.3333,0,0,58.3333,353.942,496.509)">
                <path d="M0.452,-0.181L0.452,-0.506L0.432,-0.506L0.432,-0.182C0.432,-0.128 0.418,-0.087 0.391,-0.059C0.363,-0.031 0.323,-0.017 0.27,-0.017C0.217,-0.017 0.177,-0.031 0.15,-0.059C0.122,-0.087 0.108,-0.128 0.109,-0.182L0.111,-0.47L0.09,-0.477L0.09,-0.255L0.089,-0.181C0.088,-0.122 0.103,-0.076 0.134,-0.045C0.165,-0.013 0.211,0.003 0.27,0.003C0.329,0.003 0.374,-0.013 0.406,-0.045C0.438,-0.077 0.453,-0.122 0.452,-0.181ZM-0.001,-0.543L0.407,-0.395L0.407,-0.404L0.002,-0.551C-0.001,-0.552 -0.003,-0.551 -0.003,-0.548C-0.004,-0.546 -0.004,-0.544 -0.001,-0.543ZM0.543,-0.355L0.477,-0.378L0.477,-0.369L0.54,-0.347L0.541,-0.346C0.544,-0.346 0.545,-0.347 0.545,-0.349C0.546,-0.352 0.546,-0.354 0.543,-0.355ZM0.541,0.041L0.54,0.042L0.541,0.043C0.542,0.043 0.543,0.043 0.543,0.042C0.542,0.041 0.542,0.041 0.541,0.041ZM0.541,-0.009C0.54,-0.009 0.54,-0.008 0.54,-0.007C0.54,-0.006 0.54,-0.005 0.541,-0.005C0.542,-0.005 0.543,-0.006 0.543,-0.007C0.543,-0.008 0.542,-0.009 0.541,-0.009ZM0.541,-0.059C0.54,-0.059 0.539,-0.058 0.539,-0.056C0.539,-0.054 0.54,-0.053 0.541,-0.053C0.543,-0.053 0.544,-0.054 0.544,-0.056C0.544,-0.058 0.543,-0.059 0.541,-0.059ZM0.541,-0.108C0.539,-0.108 0.538,-0.107 0.538,-0.105C0.538,-0.103 0.539,-0.102 0.541,-0.102C0.544,-0.102 0.545,-0.103 0.545,-0.105C0.545,-0.107 0.544,-0.108 0.541,-0.108ZM0.541,-0.158C0.538,-0.158 0.537,-0.157 0.537,-0.154C0.537,-0.151 0.538,-0.15 0.541,-0.15C0.544,-0.15 0.545,-0.151 0.545,-0.154C0.545,-0.157 0.544,-0.158 0.541,-0.158ZM0.541,-0.208C0.538,-0.208 0.537,-0.206 0.537,-0.203C0.537,-0.2 0.538,-0.199 0.541,-0.199C0.544,-0.199 0.546,-0.2 0.546,-0.203C0.546,-0.206 0.544,-0.208 0.541,-0.208ZM0.541,-0.258C0.538,-0.258 0.536,-0.256 0.536,-0.252C0.536,-0.249 0.538,-0.247 0.541,-0.247C0.545,-0.247 0.547,-0.249 0.547,-0.252C0.547,-0.256 0.545,-0.258 0.541,-0.258ZM0.541,-0.308C0.537,-0.308 0.535,-0.306 0.535,-0.301C0.535,-0.297 0.537,-0.295 0.541,-0.295C0.546,-0.295 0.548,-0.297 0.548,-0.301C0.548,-0.306 0.546,-0.308 0.541,-0.308ZM0.492,0.041L0.491,0.042L0.492,0.043C0.493,0.043 0.493,0.043 0.493,0.042C0.493,0.041 0.493,0.041 0.492,0.041ZM0.492,-0.009C0.491,-0.009 0.491,-0.008 0.491,-0.007C0.491,-0.006 0.491,-0.005 0.492,-0.005C0.493,-0.005 0.494,-0.006 0.494,-0.007C0.494,-0.008 0.493,-0.009 0.492,-0.009ZM0.492,-0.059C0.491,-0.059 0.49,-0.058 0.49,-0.056C0.49,-0.054 0.491,-0.053 0.492,-0.053C0.494,-0.053 0.495,-0.054 0.495,-0.056C0.495,-0.058 0.494,-0.059 0.492,-0.059ZM0.492,-0.108C0.49,-0.108 0.489,-0.107 0.489,-0.105C0.489,-0.103 0.49,-0.102 0.492,-0.102C0.495,-0.102 0.496,-0.103 0.496,-0.105C0.496,-0.107 0.495,-0.108 0.492,-0.108ZM0.492,-0.158C0.489,-0.158 0.488,-0.157 0.488,-0.154C0.488,-0.151 0.489,-0.15 0.492,-0.15C0.495,-0.15 0.496,-0.151 0.496,-0.154C0.496,-0.157 0.495,-0.158 0.492,-0.158ZM0.492,-0.208C0.489,-0.208 0.488,-0.206 0.488,-0.203C0.488,-0.2 0.489,-0.199 0.492,-0.199C0.495,-0.199 0.497,-0.2 0.497,-0.203C0.497,-0.206 0.495,-0.208 0.492,-0.208ZM0.492,-0.258C0.489,-0.258 0.487,-0.256 0.487,-0.252C0.487,-0.249 0.489,-0.247 0.492,-0.247C0.496,-0.247 0.498,-0.249 0.498,-0.252C0.498,-0.256 0.496,-0.258 0.492,-0.258ZM0.492,-0.308C0.488,-0.308 0.486,-0.306 0.486,-0.301C0.486,-0.297 0.488,-0.295 0.492,-0.295C0.496,-0.295 0.498,-0.297 0.498,-0.301C0.498,-0.306 0.496,-0.308 0.492,-0.308ZM0.443,0.041L0.442,0.042C0.442,0.043 0.442,0.043 0.443,0.043C0.444,0.043 0.444,0.043 0.444,0.042C0.444,0.041 0.444,0.041 0.443,0.041ZM0.443,-0.009C0.442,-0.009 0.441,-0.008 0.441,-0.007C0.441,-0.006 0.442,-0.005 0.443,-0.005C0.444,-0.005 0.445,-0.006 0.445,-0.007C0.445,-0.008 0.444,-0.009 0.443,-0.009ZM0.394,0.041L0.393,0.042C0.393,0.043 0.393,0.043 0.394,0.043C0.395,0.043 0.395,0.043 0.395,0.042C0.395,0.041 0.395,0.041 0.394,0.041ZM0.394,-0.158C0.391,-0.158 0.39,-0.157 0.39,-0.154C0.39,-0.151 0.391,-0.15 0.394,-0.15C0.397,-0.15 0.398,-0.151 0.398,-0.154C0.398,-0.157 0.397,-0.158 0.394,-0.158ZM0.394,-0.208C0.391,-0.208 0.389,-0.206 0.389,-0.203C0.389,-0.2 0.391,-0.199 0.394,-0.199C0.397,-0.199 0.399,-0.2 0.399,-0.203C0.399,-0.206 0.397,-0.208 0.394,-0.208ZM0.394,-0.258C0.391,-0.258 0.389,-0.256 0.389,-0.252C0.389,-0.249 0.391,-0.247 0.394,-0.247C0.397,-0.247 0.399,-0.249 0.399,-0.252C0.399,-0.256 0.397,-0.258 0.394,-0.258ZM0.394,-0.308C0.39,-0.308 0.388,-0.306 0.388,-0.301C0.388,-0.297 0.39,-0.295 0.394,-0.295C0.398,-0.295 0.4,-0.297 0.4,-0.301C0.4,-0.306 0.398,-0.308 0.394,-0.308ZM0.394,-0.357C0.389,-0.357 0.387,-0.355 0.387,-0.351C0.387,-0.346 0.389,-0.344 0.394,-0.344C0.399,-0.344 0.401,-0.346 0.401,-0.351C0.401,-0.355 0.399,-0.357 0.394,-0.357ZM0.346,0.042L0.345,0.041L0.344,0.042C0.344,0.043 0.344,0.043 0.345,0.043C0.346,0.043 0.346,0.043 0.346,0.042ZM0.345,-0.108C0.342,-0.108 0.341,-0.107 0.341,-0.105C0.341,-0.103 0.342,-0.102 0.345,-0.102C0.347,-0.102 0.348,-0.103 0.348,-0.105C0.348,-0.107 0.347,-0.108 0.345,-0.108ZM0.345,-0.158C0.342,-0.158 0.341,-0.157 0.341,-0.154C0.341,-0.151 0.342,-0.15 0.345,-0.15C0.348,-0.15 0.349,-0.151 0.349,-0.154C0.349,-0.157 0.348,-0.158 0.345,-0.158ZM0.345,-0.208C0.342,-0.208 0.34,-0.206 0.34,-0.203C0.34,-0.2 0.342,-0.199 0.345,-0.199C0.348,-0.199 0.349,-0.2 0.349,-0.203C0.349,-0.206 0.348,-0.208 0.345,-0.208ZM0.345,-0.258C0.341,-0.258 0.339,-0.256 0.339,-0.252C0.339,-0.249 0.341,-0.247 0.345,-0.247C0.348,-0.247 0.35,-0.249 0.35,-0.252C0.35,-0.256 0.348,-0.258 0.345,-0.258ZM0.345,-0.308C0.341,-0.308 0.339,-0.306 0.339,-0.301C0.339,-0.297 0.341,-0.295 0.345,-0.295C0.349,-0.295 0.351,-0.297 0.351,-0.301C0.351,-0.306 0.349,-0.308 0.345,-0.308ZM0.345,-0.357C0.34,-0.357 0.338,-0.355 0.338,-0.351C0.338,-0.346 0.34,-0.344 0.345,-0.344C0.349,-0.344 0.351,-0.346 0.351,-0.351C0.351,-0.355 0.349,-0.357 0.345,-0.357ZM0.297,0.042L0.296,0.041L0.294,0.042C0.294,0.043 0.295,0.043 0.296,0.043C0.297,0.043 0.297,0.043 0.297,0.042ZM0.296,-0.059C0.294,-0.059 0.293,-0.058 0.293,-0.056C0.293,-0.054 0.294,-0.053 0.296,-0.053C0.297,-0.053 0.298,-0.054 0.298,-0.056C0.298,-0.058 0.297,-0.059 0.296,-0.059ZM0.296,-0.108C0.293,-0.108 0.292,-0.107 0.292,-0.105C0.292,-0.103 0.293,-0.102 0.296,-0.102C0.298,-0.102 0.299,-0.103 0.299,-0.105C0.299,-0.107 0.298,-0.108 0.296,-0.108ZM0.296,-0.158C0.293,-0.158 0.292,-0.157 0.292,-0.154C0.292,-0.151 0.293,-0.15 0.296,-0.15C0.299,-0.15 0.3,-0.151 0.3,-0.154C0.3,-0.157 0.299,-0.158 0.296,-0.158ZM0.296,-0.208C0.293,-0.208 0.291,-0.206 0.291,-0.203C0.291,-0.2 0.293,-0.199 0.296,-0.199C0.299,-0.199 0.3,-0.2 0.3,-0.203C0.3,-0.206 0.299,-0.208 0.296,-0.208ZM0.296,-0.258C0.292,-0.258 0.29,-0.256 0.29,-0.252C0.29,-0.249 0.292,-0.247 0.296,-0.247C0.299,-0.247 0.301,-0.249 0.301,-0.252C0.301,-0.256 0.299,-0.258 0.296,-0.258ZM0.296,-0.308C0.291,-0.308 0.289,-0.306 0.289,-0.301C0.289,-0.297 0.291,-0.295 0.296,-0.295C0.3,-0.295 0.302,-0.297 0.302,-0.301C0.302,-0.306 0.3,-0.308 0.296,-0.308ZM0.296,-0.357C0.291,-0.357 0.289,-0.355 0.289,-0.351C0.289,-0.346 0.291,-0.344 0.296,-0.344C0.3,-0.344 0.302,-0.346 0.302,-0.351C0.302,-0.355 0.3,-0.357 0.296,-0.357ZM0.296,-0.407C0.291,-0.407 0.288,-0.405 0.288,-0.4C0.288,-0.395 0.291,-0.392 0.296,-0.392C0.301,-0.392 0.303,-0.395 0.303,-0.4C0.303,-0.405 0.301,-0.407 0.296,-0.407ZM0.246,0.041L0.245,0.042L0.246,0.043C0.247,0.043 0.247,0.043 0.247,0.042C0.247,0.041 0.247,0.041 0.246,0.041ZM0.246,-0.059C0.245,-0.059 0.244,-0.058 0.244,-0.056C0.244,-0.054 0.245,-0.053 0.246,-0.053C0.248,-0.053 0.249,-0.054 0.249,-0.056C0.249,-0.058 0.248,-0.059 0.246,-0.059ZM0.246,-0.108C0.244,-0.108 0.243,-0.107 0.243,-0.105C0.243,-0.103 0.244,-0.102 0.246,-0.102C0.249,-0.102 0.25,-0.103 0.25,-0.105C0.25,-0.107 0.249,-0.108 0.246,-0.108ZM0.246,-0.158C0.243,-0.158 0.242,-0.157 0.242,-0.154C0.242,-0.151 0.243,-0.15 0.246,-0.15C0.249,-0.15 0.25,-0.151 0.25,-0.154C0.25,-0.157 0.249,-0.158 0.246,-0.158ZM0.246,-0.208C0.243,-0.208 0.242,-0.206 0.242,-0.203C0.242,-0.2 0.243,-0.199 0.246,-0.199C0.249,-0.199 0.251,-0.2 0.251,-0.203C0.251,-0.206 0.249,-0.208 0.246,-0.208ZM0.246,-0.258C0.243,-0.258 0.241,-0.256 0.241,-0.252C0.241,-0.249 0.243,-0.247 0.246,-0.247C0.25,-0.247 0.252,-0.249 0.252,-0.252C0.252,-0.256 0.25,-0.258 0.246,-0.258ZM0.246,-0.308C0.242,-0.308 0.24,-0.306 0.24,-0.301C0.24,-0.297 0.242,-0.295 0.246,-0.295C0.251,-0.295 0.253,-0.297 0.253,-0.301C0.253,-0.306 0.251,-0.308 0.246,-0.308ZM0.246,-0.357C0.242,-0.357 0.24,-0.355 0.24,-0.351C0.24,-0.346 0.242,-0.344 0.246,-0.344C0.251,-0.344 0.253,-0.346 0.253,-0.351C0.253,-0.355 0.251,-0.357 0.246,-0.357ZM0.246,-0.407C0.241,-0.407 0.239,-0.405 0.239,-0.4C0.239,-0.395 0.241,-0.392 0.246,-0.392C0.251,-0.392 0.254,-0.395 0.254,-0.4C0.254,-0.405 0.251,-0.407 0.246,-0.407ZM0.197,0.041L0.196,0.042L0.197,0.043C0.198,0.043 0.198,0.043 0.198,0.042C0.198,0.041 0.198,0.041 0.197,0.041ZM0.197,-0.108C0.195,-0.108 0.194,-0.107 0.194,-0.105C0.194,-0.103 0.195,-0.102 0.197,-0.102C0.199,-0.102 0.2,-0.103 0.2,-0.105C0.2,-0.107 0.199,-0.108 0.197,-0.108ZM0.197,-0.158C0.194,-0.158 0.193,-0.157 0.193,-0.154C0.193,-0.151 0.194,-0.15 0.197,-0.15C0.2,-0.15 0.201,-0.151 0.201,-0.154C0.201,-0.157 0.2,-0.158 0.197,-0.158ZM0.197,-0.208C0.194,-0.208 0.192,-0.206 0.192,-0.203C0.192,-0.2 0.194,-0.199 0.197,-0.199C0.2,-0.199 0.202,-0.2 0.202,-0.203C0.202,-0.206 0.2,-0.208 0.197,-0.208ZM0.197,-0.258C0.194,-0.258 0.192,-0.256 0.192,-0.252C0.192,-0.249 0.194,-0.247 0.197,-0.247C0.201,-0.247 0.203,-0.249 0.203,-0.252C0.203,-0.256 0.201,-0.258 0.197,-0.258ZM0.197,-0.308C0.193,-0.308 0.191,-0.306 0.191,-0.301C0.191,-0.297 0.193,-0.295 0.197,-0.295C0.201,-0.295 0.203,-0.297 0.203,-0.301C0.203,-0.306 0.201,-0.308 0.197,-0.308ZM0.197,-0.357C0.192,-0.357 0.19,-0.355 0.19,-0.351C0.19,-0.346 0.192,-0.344 0.197,-0.344C0.202,-0.344 0.204,-0.346 0.204,-0.351C0.204,-0.355 0.202,-0.357 0.197,-0.357ZM0.197,-0.407C0.192,-0.407 0.19,-0.405 0.19,-0.4C0.19,-0.395 0.192,-0.392 0.197,-0.392C0.202,-0.392 0.205,-0.395 0.205,-0.4C0.205,-0.405 0.202,-0.407 0.197,-0.407ZM0.148,0.041L0.147,0.042C0.147,0.043 0.147,0.043 0.148,0.043C0.149,0.043 0.149,0.043 0.149,0.042C0.149,0.041 0.149,0.041 0.148,0.041ZM0.148,-0.158C0.145,-0.158 0.144,-0.157 0.144,-0.154C0.144,-0.151 0.145,-0.15 0.148,-0.15C0.151,-0.15 0.152,-0.151 0.152,-0.154C0.152,-0.157 0.151,-0.158 0.148,-0.158ZM0.148,-0.208C0.145,-0.208 0.143,-0.206 0.143,-0.203C0.143,-0.2 0.145,-0.199 0.148,-0.199C0.151,-0.199 0.153,-0.2 0.153,-0.203C0.153,-0.206 0.151,-0.208 0.148,-0.208ZM0.148,-0.258C0.145,-0.258 0.143,-0.256 0.143,-0.252C0.143,-0.249 0.145,-0.247 0.148,-0.247C0.151,-0.247 0.153,-0.249 0.153,-0.252C0.153,-0.256 0.151,-0.258 0.148,-0.258ZM0.148,-0.308C0.144,-0.308 0.142,-0.306 0.142,-0.301C0.142,-0.297 0.144,-0.295 0.148,-0.295C0.152,-0.295 0.154,-0.297 0.154,-0.301C0.154,-0.306 0.152,-0.308 0.148,-0.308ZM0.148,-0.357C0.143,-0.357 0.141,-0.355 0.141,-0.351C0.141,-0.346 0.143,-0.344 0.148,-0.344C0.153,-0.344 0.155,-0.346 0.155,-0.351C0.155,-0.355 0.153,-0.357 0.148,-0.357ZM0.148,-0.407C0.143,-0.407 0.14,-0.405 0.14,-0.4C0.14,-0.395 0.143,-0.392 0.148,-0.392C0.153,-0.392 0.156,-0.395 0.156,-0.4C0.156,-0.405 0.153,-0.407 0.148,-0.407ZM0.148,-0.457C0.143,-0.457 0.14,-0.454 0.14,-0.449C0.14,-0.443 0.143,-0.44 0.148,-0.44C0.153,-0.44 0.156,-0.443 0.156,-0.449C0.156,-0.454 0.153,-0.457 0.148,-0.457ZM0.1,0.042L0.099,0.041L0.098,0.042C0.098,0.043 0.098,0.043 0.099,0.043C0.1,0.043 0.1,0.043 0.1,0.042ZM0.099,-0.009C0.098,-0.009 0.097,-0.008 0.097,-0.007C0.097,-0.006 0.098,-0.005 0.099,-0.005C0.1,-0.005 0.101,-0.006 0.101,-0.007C0.101,-0.008 0.1,-0.009 0.099,-0.009ZM0.051,0.042L0.05,0.041L0.049,0.042C0.049,0.043 0.049,0.043 0.05,0.043C0.051,0.043 0.051,0.043 0.051,0.042ZM0.05,-0.009C0.049,-0.009 0.048,-0.008 0.048,-0.007C0.048,-0.006 0.049,-0.005 0.05,-0.005C0.051,-0.005 0.051,-0.006 0.051,-0.007C0.051,-0.008 0.051,-0.009 0.05,-0.009ZM0.05,-0.059C0.048,-0.059 0.047,-0.058 0.047,-0.056C0.047,-0.054 0.048,-0.053 0.05,-0.053C0.051,-0.053 0.052,-0.054 0.052,-0.056C0.052,-0.058 0.051,-0.059 0.05,-0.059ZM0.05,-0.108C0.047,-0.108 0.046,-0.107 0.046,-0.105C0.046,-0.103 0.047,-0.102 0.05,-0.102C0.052,-0.102 0.053,-0.103 0.053,-0.105C0.053,-0.107 0.052,-0.108 0.05,-0.108ZM0.05,-0.158C0.047,-0.158 0.046,-0.157 0.046,-0.154C0.046,-0.151 0.047,-0.15 0.05,-0.15C0.053,-0.15 0.054,-0.151 0.054,-0.154C0.054,-0.157 0.053,-0.158 0.05,-0.158ZM0.05,-0.208C0.047,-0.208 0.045,-0.206 0.045,-0.203C0.045,-0.2 0.047,-0.199 0.05,-0.199C0.053,-0.199 0.054,-0.2 0.054,-0.203C0.054,-0.206 0.053,-0.208 0.05,-0.208ZM0.05,-0.258C0.046,-0.258 0.044,-0.256 0.044,-0.252C0.044,-0.249 0.046,-0.247 0.05,-0.247C0.053,-0.247 0.055,-0.249 0.055,-0.252C0.055,-0.256 0.053,-0.258 0.05,-0.258ZM0.05,-0.308C0.045,-0.308 0.043,-0.306 0.043,-0.301C0.043,-0.297 0.045,-0.295 0.05,-0.295C0.054,-0.295 0.056,-0.297 0.056,-0.301C0.056,-0.306 0.054,-0.308 0.05,-0.308ZM0.05,-0.357C0.045,-0.357 0.043,-0.355 0.043,-0.351C0.043,-0.346 0.045,-0.344 0.05,-0.344C0.054,-0.344 0.056,-0.346 0.056,-0.351C0.056,-0.355 0.054,-0.357 0.05,-0.357ZM0.05,-0.407C0.045,-0.407 0.042,-0.405 0.042,-0.4C0.042,-0.395 0.045,-0.392 0.05,-0.392C0.055,-0.392 0.057,-0.395 0.057,-0.4C0.057,-0.405 0.055,-0.407 0.05,-0.407ZM0.05,-0.457C0.044,-0.457 0.041,-0.454 0.041,-0.449C0.041,-0.443 0.044,-0.44 0.05,-0.44C0.055,-0.44 0.058,-0.443 0.058,-0.449C0.058,-0.454 0.055,-0.457 0.05,-0.457Z" style="fill:rgb(10,77,96);fill-rule:nonzero;"/>
            </g>
            <g transform="matrix(58.3333,0,0,58.3333,385.5,496.509)">
                <path d="M0.494,0.041L0.493,0.042L0.494,0.043C0.495,0.043 0.496,0.043 0.496,0.042C0.495,0.041 0.495,0.041 0.494,0.041ZM0.494,-0.009C0.493,-0.009 0.493,-0.008 0.493,-0.007C0.493,-0.006 0.493,-0.005 0.494,-0.005C0.495,-0.005 0.496,-0.006 0.496,-0.007C0.496,-0.008 0.495,-0.009 0.494,-0.009ZM0.494,-0.059C0.493,-0.059 0.492,-0.058 0.492,-0.056C0.492,-0.054 0.493,-0.053 0.494,-0.053C0.496,-0.053 0.497,-0.054 0.497,-0.056C0.497,-0.058 0.496,-0.059 0.494,-0.059ZM0.494,-0.108C0.492,-0.108 0.491,-0.107 0.491,-0.105C0.491,-0.103 0.492,-0.102 0.494,-0.102C0.497,-0.102 0.498,-0.103 0.498,-0.105C0.498,-0.107 0.497,-0.108 0.494,-0.108ZM0.445,0.041L0.444,0.042C0.444,0.043 0.444,0.043 0.445,0.043C0.446,0.043 0.446,0.043 0.446,0.042C0.446,0.041 0.446,0.041 0.445,0.041ZM0.397,0.042L0.396,0.041L0.395,0.042C0.395,0.043 0.395,0.043 0.396,0.043C0.397,0.043 0.397,0.043 0.397,0.042ZM0.346,0.041L0.345,0.042L0.346,0.043C0.347,0.043 0.347,0.043 0.347,0.042C0.347,0.041 0.347,0.041 0.346,0.041ZM0.346,-0.009C0.345,-0.009 0.344,-0.008 0.344,-0.007C0.344,-0.006 0.345,-0.005 0.346,-0.005C0.347,-0.005 0.348,-0.006 0.348,-0.007C0.348,-0.008 0.347,-0.009 0.346,-0.009ZM0.396,-0.009C0.395,-0.009 0.394,-0.008 0.394,-0.007C0.394,-0.006 0.395,-0.005 0.396,-0.005C0.397,-0.005 0.397,-0.006 0.397,-0.007C0.397,-0.008 0.397,-0.009 0.396,-0.009ZM0.346,-0.059C0.345,-0.059 0.344,-0.058 0.344,-0.056C0.344,-0.054 0.345,-0.053 0.346,-0.053C0.348,-0.053 0.349,-0.054 0.349,-0.056C0.349,-0.058 0.348,-0.059 0.346,-0.059ZM0.346,-0.108C0.344,-0.108 0.343,-0.107 0.343,-0.105C0.343,-0.103 0.344,-0.102 0.346,-0.102C0.348,-0.102 0.349,-0.103 0.349,-0.105C0.349,-0.107 0.348,-0.108 0.346,-0.108ZM0.298,0.042L0.297,0.041L0.296,0.042C0.296,0.043 0.296,0.043 0.297,0.043C0.298,0.043 0.298,0.043 0.298,0.042ZM0.297,-0.009C0.296,-0.009 0.295,-0.008 0.295,-0.007C0.295,-0.006 0.296,-0.005 0.297,-0.005C0.298,-0.005 0.299,-0.006 0.299,-0.007C0.299,-0.008 0.298,-0.009 0.297,-0.009ZM0.297,-0.059C0.295,-0.059 0.294,-0.058 0.294,-0.056C0.294,-0.054 0.295,-0.053 0.297,-0.053C0.298,-0.053 0.299,-0.054 0.299,-0.056C0.299,-0.058 0.298,-0.059 0.297,-0.059ZM0.297,-0.108C0.295,-0.108 0.294,-0.107 0.294,-0.105C0.294,-0.103 0.295,-0.102 0.297,-0.102C0.299,-0.102 0.3,-0.103 0.3,-0.105C0.3,-0.107 0.299,-0.108 0.297,-0.108ZM0.247,0.041L0.246,0.042L0.247,0.043C0.248,0.043 0.249,0.043 0.249,0.042C0.248,0.041 0.248,0.041 0.247,0.041ZM0.247,-0.009C0.246,-0.009 0.246,-0.008 0.246,-0.007C0.246,-0.006 0.246,-0.005 0.247,-0.005C0.248,-0.005 0.249,-0.006 0.249,-0.007C0.249,-0.008 0.248,-0.009 0.247,-0.009ZM0.247,-0.059C0.246,-0.059 0.245,-0.058 0.245,-0.056C0.245,-0.054 0.246,-0.053 0.247,-0.053C0.249,-0.053 0.25,-0.054 0.25,-0.056C0.25,-0.058 0.249,-0.059 0.247,-0.059ZM0.247,-0.108C0.245,-0.108 0.244,-0.107 0.244,-0.105C0.244,-0.103 0.245,-0.102 0.247,-0.102C0.25,-0.102 0.251,-0.103 0.251,-0.105C0.251,-0.107 0.25,-0.108 0.247,-0.108ZM0.247,-0.208C0.244,-0.208 0.243,-0.206 0.243,-0.203C0.243,-0.2 0.244,-0.199 0.247,-0.199C0.25,-0.199 0.252,-0.2 0.252,-0.203C0.252,-0.206 0.25,-0.208 0.247,-0.208ZM0.198,0.041L0.197,0.042C0.197,0.043 0.197,0.043 0.198,0.043C0.199,0.043 0.199,0.043 0.199,0.042C0.199,0.041 0.199,0.041 0.198,0.041ZM0.198,-0.009C0.197,-0.009 0.196,-0.008 0.196,-0.007C0.196,-0.006 0.197,-0.005 0.198,-0.005C0.199,-0.005 0.2,-0.006 0.2,-0.007C0.2,-0.008 0.199,-0.009 0.198,-0.009ZM0.198,-0.059C0.196,-0.059 0.195,-0.058 0.195,-0.056C0.195,-0.054 0.196,-0.053 0.198,-0.053C0.2,-0.053 0.201,-0.054 0.201,-0.056C0.201,-0.058 0.2,-0.059 0.198,-0.059ZM0.198,-0.108C0.196,-0.108 0.195,-0.107 0.195,-0.105C0.195,-0.103 0.196,-0.102 0.198,-0.102C0.2,-0.102 0.201,-0.103 0.201,-0.105C0.201,-0.107 0.2,-0.108 0.198,-0.108ZM0.198,-0.208C0.195,-0.208 0.193,-0.206 0.193,-0.203C0.193,-0.2 0.195,-0.199 0.198,-0.199C0.201,-0.199 0.203,-0.2 0.203,-0.203C0.203,-0.206 0.201,-0.208 0.198,-0.208ZM0.15,0.042L0.149,0.041L0.147,0.042C0.147,0.043 0.148,0.043 0.149,0.043C0.15,0.043 0.15,0.043 0.15,0.042ZM0.149,-0.009C0.148,-0.009 0.147,-0.008 0.147,-0.007C0.147,-0.006 0.148,-0.005 0.149,-0.005C0.15,-0.005 0.15,-0.006 0.15,-0.007C0.15,-0.008 0.15,-0.009 0.149,-0.009ZM0.149,-0.059C0.147,-0.059 0.146,-0.058 0.146,-0.056C0.146,-0.054 0.147,-0.053 0.149,-0.053C0.15,-0.053 0.151,-0.054 0.151,-0.056C0.151,-0.058 0.15,-0.059 0.149,-0.059ZM0.149,-0.108C0.146,-0.108 0.145,-0.107 0.145,-0.105C0.145,-0.103 0.146,-0.102 0.149,-0.102C0.151,-0.102 0.152,-0.103 0.152,-0.105C0.152,-0.107 0.151,-0.108 0.149,-0.108ZM0.099,0.041L0.098,0.042L0.099,0.043C0.1,0.043 0.1,0.043 0.1,0.042C0.1,0.041 0.1,0.041 0.099,0.041ZM0.099,-0.009C0.098,-0.009 0.097,-0.008 0.097,-0.007C0.097,-0.006 0.098,-0.005 0.099,-0.005C0.1,-0.005 0.101,-0.006 0.101,-0.007C0.101,-0.008 0.1,-0.009 0.099,-0.009ZM0.099,-0.258C0.096,-0.258 0.094,-0.256 0.094,-0.252C0.094,-0.249 0.096,-0.247 0.099,-0.247C0.103,-0.247 0.105,-0.249 0.105,-0.252C0.105,-0.256 0.103,-0.258 0.099,-0.258ZM0.051,0.042L0.05,0.041L0.049,0.042C0.049,0.043 0.049,0.043 0.05,0.043C0.051,0.043 0.051,0.043 0.051,0.042ZM0.05,-0.158C0.047,-0.158 0.046,-0.157 0.046,-0.154C0.046,-0.151 0.047,-0.15 0.05,-0.15C0.053,-0.15 0.054,-0.151 0.054,-0.154C0.054,-0.157 0.053,-0.158 0.05,-0.158ZM0.05,-0.208C0.047,-0.208 0.045,-0.206 0.045,-0.203C0.045,-0.2 0.047,-0.199 0.05,-0.199C0.053,-0.199 0.055,-0.2 0.055,-0.203C0.055,-0.206 0.053,-0.208 0.05,-0.208ZM0.05,-0.258C0.046,-0.258 0.044,-0.256 0.044,-0.252C0.044,-0.249 0.046,-0.247 0.05,-0.247C0.053,-0.247 0.055,-0.249 0.055,-0.252C0.055,-0.256 0.053,-0.258 0.05,-0.258ZM0.262,-0.506L0.241,-0.506L0.155,-0.294L0.002,-0.354C-0.001,-0.355 -0.003,-0.355 -0.003,-0.352C-0.004,-0.35 -0.004,-0.348 -0.001,-0.347L0.324,-0.218L0.32,-0.228L0.172,-0.287L0.249,-0.475L0.252,-0.475L0.372,-0.161L0.121,-0.161L0.157,-0.25L0.14,-0.257L0.034,-0L0.057,-0L0.069,-0.036L0.113,-0.141L0.379,-0.141L0.419,-0.036L0.429,-0L0.452,-0L0.262,-0.506ZM0.496,-0.158L0.406,-0.194L0.41,-0.183L0.493,-0.15L0.494,-0.15C0.497,-0.15 0.498,-0.151 0.498,-0.153C0.499,-0.155 0.499,-0.157 0.496,-0.158Z" style="fill:rgb(10,77,96);fill-rule:nonzero;"/>
            </g>
            <g transform="matrix(58.3333,0,0,58.3333,414.317,496.509)">
                <path d="M0.365,0.041L0.364,0.042L0.365,0.043C0.366,0.043 0.367,0.043 0.367,0.042C0.366,0.041 0.366,0.041 0.365,0.041ZM0.365,-0.059C0.364,-0.059 0.363,-0.058 0.363,-0.056C0.363,-0.054 0.364,-0.053 0.365,-0.053C0.367,-0.053 0.368,-0.054 0.368,-0.056C0.368,-0.058 0.367,-0.059 0.365,-0.059ZM0.365,-0.108C0.363,-0.108 0.362,-0.107 0.362,-0.105C0.362,-0.103 0.363,-0.102 0.365,-0.102C0.368,-0.102 0.369,-0.103 0.369,-0.105C0.369,-0.107 0.368,-0.108 0.365,-0.108ZM0.365,-0.158C0.362,-0.158 0.361,-0.157 0.361,-0.154C0.361,-0.151 0.362,-0.15 0.365,-0.15C0.368,-0.15 0.369,-0.151 0.369,-0.154C0.369,-0.157 0.368,-0.158 0.365,-0.158ZM0.365,-0.208C0.362,-0.208 0.361,-0.206 0.361,-0.203C0.361,-0.2 0.362,-0.199 0.365,-0.199C0.368,-0.199 0.37,-0.2 0.37,-0.203C0.37,-0.206 0.368,-0.208 0.365,-0.208ZM0.365,-0.258C0.362,-0.258 0.36,-0.256 0.36,-0.252C0.36,-0.249 0.362,-0.247 0.365,-0.247C0.369,-0.247 0.371,-0.249 0.371,-0.252C0.371,-0.256 0.369,-0.258 0.365,-0.258ZM0.365,-0.308C0.361,-0.308 0.359,-0.306 0.359,-0.301C0.359,-0.297 0.361,-0.295 0.365,-0.295C0.37,-0.295 0.372,-0.297 0.372,-0.301C0.372,-0.306 0.37,-0.308 0.365,-0.308ZM0.313,0.041L0.312,0.042L0.313,0.043C0.314,0.043 0.314,0.043 0.314,0.042C0.314,0.041 0.314,0.041 0.313,0.041ZM0.313,-0.059C0.312,-0.059 0.311,-0.058 0.311,-0.056C0.311,-0.054 0.312,-0.053 0.313,-0.053C0.315,-0.053 0.316,-0.054 0.316,-0.056C0.316,-0.058 0.315,-0.059 0.313,-0.059ZM0.313,-0.108C0.311,-0.108 0.31,-0.107 0.31,-0.105C0.31,-0.103 0.311,-0.102 0.313,-0.102C0.316,-0.102 0.317,-0.103 0.317,-0.105C0.317,-0.107 0.316,-0.108 0.313,-0.108ZM0.313,-0.158C0.31,-0.158 0.309,-0.157 0.309,-0.154C0.309,-0.151 0.31,-0.15 0.313,-0.15C0.316,-0.15 0.317,-0.151 0.317,-0.154C0.317,-0.157 0.316,-0.158 0.313,-0.158ZM0.313,-0.208C0.31,-0.208 0.309,-0.206 0.309,-0.203C0.309,-0.2 0.31,-0.199 0.313,-0.199C0.316,-0.199 0.318,-0.2 0.318,-0.203C0.318,-0.206 0.316,-0.208 0.313,-0.208ZM0.313,-0.258C0.31,-0.258 0.308,-0.256 0.308,-0.252C0.308,-0.249 0.31,-0.247 0.313,-0.247C0.317,-0.247 0.319,-0.249 0.319,-0.252C0.319,-0.256 0.317,-0.258 0.313,-0.258ZM0.261,0.041L0.26,0.042L0.261,0.043C0.262,0.043 0.262,0.043 0.262,0.042C0.262,0.041 0.262,0.041 0.261,0.041ZM0.261,-0.059C0.26,-0.059 0.259,-0.058 0.259,-0.056C0.259,-0.054 0.26,-0.053 0.261,-0.053C0.263,-0.053 0.264,-0.054 0.264,-0.056C0.264,-0.058 0.263,-0.059 0.261,-0.059ZM0.261,-0.108C0.259,-0.108 0.258,-0.107 0.258,-0.105C0.258,-0.103 0.259,-0.102 0.261,-0.102C0.263,-0.102 0.264,-0.103 0.264,-0.105C0.264,-0.107 0.263,-0.108 0.261,-0.108ZM0.261,-0.158C0.258,-0.158 0.257,-0.157 0.257,-0.154C0.257,-0.151 0.258,-0.15 0.261,-0.15C0.264,-0.15 0.265,-0.151 0.265,-0.154C0.265,-0.157 0.264,-0.158 0.261,-0.158ZM0.261,-0.208C0.258,-0.208 0.256,-0.206 0.256,-0.203C0.256,-0.2 0.258,-0.199 0.261,-0.199C0.264,-0.199 0.266,-0.2 0.266,-0.203C0.266,-0.206 0.264,-0.208 0.261,-0.208ZM0.261,-0.258C0.258,-0.258 0.256,-0.256 0.256,-0.252C0.256,-0.249 0.258,-0.247 0.261,-0.247C0.265,-0.247 0.267,-0.249 0.267,-0.252C0.267,-0.256 0.265,-0.258 0.261,-0.258ZM0.209,0.041L0.208,0.042C0.208,0.043 0.208,0.043 0.209,0.043C0.21,0.043 0.21,0.043 0.21,0.042C0.21,0.041 0.21,0.041 0.209,0.041ZM0.209,-0.059C0.207,-0.059 0.206,-0.058 0.206,-0.056C0.206,-0.054 0.207,-0.053 0.209,-0.053C0.211,-0.053 0.212,-0.054 0.212,-0.056C0.212,-0.058 0.211,-0.059 0.209,-0.059ZM0.209,-0.108C0.207,-0.108 0.206,-0.107 0.206,-0.105C0.206,-0.103 0.207,-0.102 0.209,-0.102C0.211,-0.102 0.212,-0.103 0.212,-0.105C0.212,-0.107 0.211,-0.108 0.209,-0.108ZM0.209,-0.158C0.206,-0.158 0.205,-0.157 0.205,-0.154C0.205,-0.151 0.206,-0.15 0.209,-0.15C0.212,-0.15 0.213,-0.151 0.213,-0.154C0.213,-0.157 0.212,-0.158 0.209,-0.158ZM0.209,-0.208C0.206,-0.208 0.204,-0.206 0.204,-0.203C0.204,-0.2 0.206,-0.199 0.209,-0.199C0.212,-0.199 0.214,-0.2 0.214,-0.203C0.214,-0.206 0.212,-0.208 0.209,-0.208ZM0.158,0.042L0.157,0.041L0.156,0.042C0.156,0.043 0.156,0.043 0.157,0.043C0.158,0.043 0.158,0.043 0.158,0.042ZM0.157,-0.059C0.155,-0.059 0.154,-0.058 0.154,-0.056C0.154,-0.054 0.155,-0.053 0.157,-0.053C0.158,-0.053 0.159,-0.054 0.159,-0.056C0.159,-0.058 0.158,-0.059 0.157,-0.059ZM0.157,-0.108C0.155,-0.108 0.154,-0.107 0.154,-0.105C0.154,-0.103 0.155,-0.102 0.157,-0.102C0.159,-0.102 0.16,-0.103 0.16,-0.105C0.16,-0.107 0.159,-0.108 0.157,-0.108ZM0.157,-0.158C0.154,-0.158 0.153,-0.157 0.153,-0.154C0.153,-0.151 0.154,-0.15 0.157,-0.15C0.16,-0.15 0.161,-0.151 0.161,-0.154C0.161,-0.157 0.16,-0.158 0.157,-0.158ZM0.106,0.042L0.105,0.041L0.104,0.042C0.104,0.043 0.104,0.043 0.105,0.043C0.106,0.043 0.106,0.043 0.106,0.042ZM0.054,0.042L0.053,0.041L0.051,0.042C0.051,0.043 0.052,0.043 0.053,0.043C0.054,0.043 0.054,0.043 0.054,0.042ZM0.053,-0.009C0.052,-0.009 0.051,-0.008 0.051,-0.007C0.051,-0.006 0.052,-0.005 0.053,-0.005C0.054,-0.005 0.054,-0.006 0.054,-0.007C0.054,-0.008 0.054,-0.009 0.053,-0.009ZM0.053,-0.059C0.051,-0.059 0.05,-0.058 0.05,-0.056C0.05,-0.054 0.051,-0.053 0.053,-0.053C0.054,-0.053 0.055,-0.054 0.055,-0.056C0.055,-0.058 0.054,-0.059 0.053,-0.059ZM0.053,-0.108C0.05,-0.108 0.049,-0.107 0.049,-0.105C0.049,-0.103 0.05,-0.102 0.053,-0.102C0.055,-0.102 0.056,-0.103 0.056,-0.105C0.056,-0.107 0.055,-0.108 0.053,-0.108ZM0.369,-0.353C0.368,-0.355 0.366,-0.355 0.363,-0.354L0.127,-0.227L0.127,-0.506L0.107,-0.506L0.107,-0.217L-0.002,-0.158C-0.004,-0.157 -0.004,-0.155 -0.003,-0.152C-0.002,-0.151 -0.001,-0.15 0,-0.15C0.001,-0.15 0.002,-0.15 0.002,-0.151L0.367,-0.347C0.37,-0.348 0.37,-0.35 0.369,-0.353ZM0.335,-0.02L0.127,-0.02L0.127,-0.183L0.107,-0.172L0.107,-0L0.334,-0L0.337,-0.016L0.335,-0.02Z" style="fill:rgb(10,77,96);fill-rule:nonzero;"/>
            </g>
            <g transform="matrix(58.3333,0,0,58.3333,435.608,496.509)">
                <path d="M0.237,0.041L0.236,0.042L0.237,0.043C0.238,0.043 0.239,0.043 0.239,0.042C0.238,0.041 0.238,0.041 0.237,0.041ZM0.237,-0.009C0.236,-0.009 0.236,-0.008 0.236,-0.007C0.236,-0.006 0.236,-0.005 0.237,-0.005C0.238,-0.005 0.239,-0.006 0.239,-0.007C0.239,-0.008 0.238,-0.009 0.237,-0.009ZM0.237,-0.059C0.236,-0.059 0.235,-0.058 0.235,-0.056C0.235,-0.054 0.236,-0.053 0.237,-0.053C0.239,-0.053 0.24,-0.054 0.24,-0.056C0.24,-0.058 0.239,-0.059 0.237,-0.059ZM0.237,-0.108C0.235,-0.108 0.234,-0.107 0.234,-0.105C0.234,-0.103 0.235,-0.102 0.237,-0.102C0.24,-0.102 0.241,-0.103 0.241,-0.105C0.241,-0.107 0.24,-0.108 0.237,-0.108ZM0.19,0.041L0.189,0.042C0.189,0.043 0.189,0.043 0.19,0.043C0.191,0.043 0.191,0.043 0.191,0.042C0.191,0.041 0.191,0.041 0.19,0.041ZM0.19,-0.009C0.189,-0.009 0.188,-0.008 0.188,-0.007C0.188,-0.006 0.189,-0.005 0.19,-0.005C0.191,-0.005 0.192,-0.006 0.192,-0.007C0.192,-0.008 0.191,-0.009 0.19,-0.009ZM0.19,-0.059C0.188,-0.059 0.187,-0.058 0.187,-0.056C0.187,-0.054 0.188,-0.053 0.19,-0.053C0.192,-0.053 0.193,-0.054 0.193,-0.056C0.193,-0.058 0.192,-0.059 0.19,-0.059ZM0.19,-0.108C0.188,-0.108 0.187,-0.107 0.187,-0.105C0.187,-0.103 0.188,-0.102 0.19,-0.102C0.192,-0.102 0.193,-0.103 0.193,-0.105C0.193,-0.107 0.192,-0.108 0.19,-0.108ZM0.19,-0.158C0.187,-0.158 0.186,-0.157 0.186,-0.154C0.186,-0.151 0.187,-0.15 0.19,-0.15C0.193,-0.15 0.194,-0.151 0.194,-0.154C0.194,-0.157 0.193,-0.158 0.19,-0.158ZM0.144,0.042L0.143,0.041L0.142,0.042C0.142,0.043 0.142,0.043 0.143,0.043C0.144,0.043 0.144,0.043 0.144,0.042ZM0.095,0.041L0.094,0.042L0.095,0.043C0.096,0.043 0.096,0.043 0.096,0.042C0.096,0.041 0.096,0.041 0.095,0.041ZM0.049,0.042L0.048,0.041L0.047,0.042C0.047,0.043 0.047,0.043 0.048,0.043C0.049,0.043 0.049,0.043 0.049,0.042ZM0.048,-0.009C0.047,-0.009 0.046,-0.008 0.046,-0.007C0.046,-0.006 0.047,-0.005 0.048,-0.005C0.049,-0.005 0.05,-0.006 0.05,-0.007C0.05,-0.008 0.049,-0.009 0.048,-0.009ZM0.048,-0.059C0.046,-0.059 0.045,-0.058 0.045,-0.056C0.045,-0.054 0.046,-0.053 0.048,-0.053C0.049,-0.053 0.05,-0.054 0.05,-0.056C0.05,-0.058 0.049,-0.059 0.048,-0.059ZM0.048,-0.108C0.046,-0.108 0.045,-0.107 0.045,-0.105C0.045,-0.103 0.046,-0.102 0.048,-0.102C0.05,-0.102 0.051,-0.103 0.051,-0.105C0.051,-0.107 0.05,-0.108 0.048,-0.108ZM0.048,-0.158C0.045,-0.158 0.044,-0.157 0.044,-0.154C0.044,-0.151 0.045,-0.15 0.048,-0.15C0.051,-0.15 0.052,-0.151 0.052,-0.154C0.052,-0.157 0.051,-0.158 0.048,-0.158ZM0.048,-0.208C0.045,-0.208 0.043,-0.206 0.043,-0.203C0.043,-0.2 0.045,-0.199 0.048,-0.199C0.051,-0.199 0.053,-0.2 0.053,-0.203C0.053,-0.206 0.051,-0.208 0.048,-0.208ZM0.048,-0.258C0.044,-0.258 0.042,-0.256 0.042,-0.252C0.042,-0.249 0.044,-0.247 0.048,-0.247C0.051,-0.247 0.053,-0.249 0.053,-0.252C0.053,-0.256 0.051,-0.258 0.048,-0.258ZM0.108,-0L0.128,-0L0.128,-0.506L0.108,-0.506L0.108,-0ZM0.083,-0.276L0.083,-0.287L0.003,-0.354C0.001,-0.355 -0.001,-0.355 -0.003,-0.353C-0.005,-0.351 -0.005,-0.349 -0.002,-0.347L0.083,-0.276ZM0.24,-0.157L0.153,-0.229L0.153,-0.218L0.235,-0.151L0.237,-0.15C0.238,-0.15 0.24,-0.151 0.241,-0.152C0.243,-0.154 0.243,-0.156 0.24,-0.157Z" style="fill:rgb(10,77,96);fill-rule:nonzero;"/>
            </g>
            <g transform="matrix(58.3333,0,0,58.3333,449.433,496.509)">
                <path d="M0.467,-0.55C0.465,-0.552 0.463,-0.552 0.461,-0.55L0.41,-0.506L0.11,-0.506L0.055,-0.507L0.052,-0.489L0.055,-0.485L0.104,-0.486L0.386,-0.486L-0.003,-0.157C-0.005,-0.155 -0.005,-0.153 -0.003,-0.152C-0.002,-0.151 -0.001,-0.15 0,-0.15C0.001,-0.15 0.002,-0.15 0.003,-0.151L0.467,-0.544C0.47,-0.545 0.47,-0.547 0.467,-0.55ZM0.388,-0.021L0.331,-0.02L0.064,-0.02L0.304,-0.364L0.24,-0.309L0.037,-0.016L0.037,0.001L0.068,-0L0.389,-0L0.392,-0.016L0.388,-0.021ZM0.455,0.041L0.454,0.042L0.455,0.043C0.456,0.043 0.457,0.043 0.457,0.042C0.456,0.041 0.456,0.041 0.455,0.041ZM0.455,-0.009C0.454,-0.009 0.454,-0.008 0.454,-0.007C0.454,-0.006 0.454,-0.005 0.455,-0.005C0.456,-0.005 0.457,-0.006 0.457,-0.007C0.457,-0.008 0.456,-0.009 0.455,-0.009ZM0.455,-0.059C0.454,-0.059 0.453,-0.058 0.453,-0.056C0.453,-0.054 0.454,-0.053 0.455,-0.053C0.457,-0.053 0.458,-0.054 0.458,-0.056C0.458,-0.058 0.457,-0.059 0.455,-0.059ZM0.455,-0.108C0.453,-0.108 0.452,-0.107 0.452,-0.105C0.452,-0.103 0.453,-0.102 0.455,-0.102C0.458,-0.102 0.459,-0.103 0.459,-0.105C0.459,-0.107 0.458,-0.108 0.455,-0.108ZM0.455,-0.158C0.452,-0.158 0.451,-0.157 0.451,-0.154C0.451,-0.151 0.452,-0.15 0.455,-0.15C0.458,-0.15 0.459,-0.151 0.459,-0.154C0.459,-0.157 0.458,-0.158 0.455,-0.158ZM0.455,-0.208C0.452,-0.208 0.451,-0.206 0.451,-0.203C0.451,-0.2 0.452,-0.199 0.455,-0.199C0.458,-0.199 0.46,-0.2 0.46,-0.203C0.46,-0.206 0.458,-0.208 0.455,-0.208ZM0.455,-0.258C0.452,-0.258 0.45,-0.256 0.45,-0.252C0.45,-0.249 0.452,-0.247 0.455,-0.247C0.459,-0.247 0.461,-0.249 0.461,-0.252C0.461,-0.256 0.459,-0.258 0.455,-0.258ZM0.455,-0.308C0.451,-0.308 0.449,-0.306 0.449,-0.301C0.449,-0.297 0.451,-0.295 0.455,-0.295C0.46,-0.295 0.462,-0.297 0.462,-0.301C0.462,-0.306 0.46,-0.308 0.455,-0.308ZM0.455,-0.357C0.451,-0.357 0.449,-0.355 0.449,-0.351C0.449,-0.346 0.451,-0.344 0.455,-0.344C0.46,-0.344 0.462,-0.346 0.462,-0.351C0.462,-0.355 0.46,-0.357 0.455,-0.357ZM0.455,-0.407C0.45,-0.407 0.448,-0.405 0.448,-0.4C0.448,-0.395 0.45,-0.392 0.455,-0.392C0.46,-0.392 0.463,-0.395 0.463,-0.4C0.463,-0.405 0.46,-0.407 0.455,-0.407ZM0.455,-0.457C0.45,-0.457 0.447,-0.454 0.447,-0.449C0.447,-0.443 0.45,-0.44 0.455,-0.44C0.461,-0.44 0.464,-0.443 0.464,-0.449C0.464,-0.454 0.461,-0.457 0.455,-0.457ZM0.455,-0.507C0.449,-0.507 0.446,-0.504 0.446,-0.498C0.446,-0.492 0.449,-0.489 0.455,-0.489C0.461,-0.489 0.464,-0.492 0.464,-0.498C0.464,-0.504 0.461,-0.507 0.455,-0.507ZM0.405,0.041L0.404,0.042C0.404,0.043 0.404,0.043 0.405,0.043C0.406,0.043 0.406,0.043 0.406,0.042C0.406,0.041 0.406,0.041 0.405,0.041ZM0.405,-0.059C0.403,-0.059 0.402,-0.058 0.402,-0.056C0.402,-0.054 0.403,-0.053 0.405,-0.053C0.406,-0.053 0.407,-0.054 0.407,-0.056C0.407,-0.058 0.406,-0.059 0.405,-0.059ZM0.405,-0.108C0.403,-0.108 0.402,-0.107 0.402,-0.105C0.402,-0.103 0.403,-0.102 0.405,-0.102C0.407,-0.102 0.408,-0.103 0.408,-0.105C0.408,-0.107 0.407,-0.108 0.405,-0.108ZM0.405,-0.158C0.402,-0.158 0.401,-0.157 0.401,-0.154C0.401,-0.151 0.402,-0.15 0.405,-0.15C0.408,-0.15 0.409,-0.151 0.409,-0.154C0.409,-0.157 0.408,-0.158 0.405,-0.158ZM0.405,-0.208C0.402,-0.208 0.4,-0.206 0.4,-0.203C0.4,-0.2 0.402,-0.199 0.405,-0.199C0.408,-0.199 0.41,-0.2 0.41,-0.203C0.41,-0.206 0.408,-0.208 0.405,-0.208ZM0.405,-0.258C0.402,-0.258 0.4,-0.256 0.4,-0.252C0.4,-0.249 0.402,-0.247 0.405,-0.247C0.408,-0.247 0.41,-0.249 0.41,-0.252C0.41,-0.256 0.408,-0.258 0.405,-0.258ZM0.405,-0.308C0.401,-0.308 0.399,-0.306 0.399,-0.301C0.399,-0.297 0.401,-0.295 0.405,-0.295C0.409,-0.295 0.411,-0.297 0.411,-0.301C0.411,-0.306 0.409,-0.308 0.405,-0.308ZM0.405,-0.357C0.4,-0.357 0.398,-0.355 0.398,-0.351C0.398,-0.346 0.4,-0.344 0.405,-0.344C0.41,-0.344 0.412,-0.346 0.412,-0.351C0.412,-0.355 0.41,-0.357 0.405,-0.357ZM0.405,-0.407C0.4,-0.407 0.397,-0.405 0.397,-0.4C0.397,-0.395 0.4,-0.392 0.405,-0.392C0.41,-0.392 0.412,-0.395 0.412,-0.4C0.412,-0.405 0.41,-0.407 0.405,-0.407ZM0.405,-0.457C0.4,-0.457 0.397,-0.454 0.397,-0.449C0.397,-0.443 0.4,-0.44 0.405,-0.44C0.41,-0.44 0.413,-0.443 0.413,-0.449C0.413,-0.454 0.41,-0.457 0.405,-0.457ZM0.354,0.041L0.353,0.042L0.354,0.043C0.355,0.043 0.355,0.043 0.355,0.042C0.355,0.041 0.355,0.041 0.354,0.041ZM0.354,-0.059C0.353,-0.059 0.352,-0.058 0.352,-0.056C0.352,-0.054 0.353,-0.053 0.354,-0.053C0.356,-0.053 0.357,-0.054 0.357,-0.056C0.357,-0.058 0.356,-0.059 0.354,-0.059ZM0.354,-0.108C0.352,-0.108 0.351,-0.107 0.351,-0.105C0.351,-0.103 0.352,-0.102 0.354,-0.102C0.357,-0.102 0.358,-0.103 0.358,-0.105C0.358,-0.107 0.357,-0.108 0.354,-0.108ZM0.354,-0.158C0.351,-0.158 0.35,-0.157 0.35,-0.154C0.35,-0.151 0.351,-0.15 0.354,-0.15C0.357,-0.15 0.358,-0.151 0.358,-0.154C0.358,-0.157 0.357,-0.158 0.354,-0.158ZM0.354,-0.208C0.351,-0.208 0.35,-0.206 0.35,-0.203C0.35,-0.2 0.351,-0.199 0.354,-0.199C0.357,-0.199 0.359,-0.2 0.359,-0.203C0.359,-0.206 0.357,-0.208 0.354,-0.208ZM0.354,-0.258C0.351,-0.258 0.349,-0.256 0.349,-0.252C0.349,-0.249 0.351,-0.247 0.354,-0.247C0.358,-0.247 0.36,-0.249 0.36,-0.252C0.36,-0.256 0.358,-0.258 0.354,-0.258ZM0.354,-0.308C0.35,-0.308 0.348,-0.306 0.348,-0.301C0.348,-0.297 0.35,-0.295 0.354,-0.295C0.358,-0.295 0.36,-0.297 0.36,-0.301C0.36,-0.306 0.358,-0.308 0.354,-0.308ZM0.354,-0.357C0.35,-0.357 0.348,-0.355 0.348,-0.351C0.348,-0.346 0.35,-0.344 0.354,-0.344C0.359,-0.344 0.361,-0.346 0.361,-0.351C0.361,-0.355 0.359,-0.357 0.354,-0.357ZM0.354,-0.407C0.349,-0.407 0.347,-0.405 0.347,-0.4C0.347,-0.395 0.349,-0.392 0.354,-0.392C0.359,-0.392 0.362,-0.395 0.362,-0.4C0.362,-0.405 0.359,-0.407 0.354,-0.407ZM0.305,0.042L0.304,0.041L0.303,0.042C0.303,0.043 0.303,0.043 0.304,0.043C0.305,0.043 0.305,0.043 0.305,0.042ZM0.304,-0.059C0.302,-0.059 0.301,-0.058 0.301,-0.056C0.301,-0.054 0.302,-0.053 0.304,-0.053C0.305,-0.053 0.306,-0.054 0.306,-0.056C0.306,-0.058 0.305,-0.059 0.304,-0.059ZM0.304,-0.108C0.302,-0.108 0.301,-0.107 0.301,-0.105C0.301,-0.103 0.302,-0.102 0.304,-0.102C0.306,-0.102 0.307,-0.103 0.307,-0.105C0.307,-0.107 0.306,-0.108 0.304,-0.108ZM0.304,-0.158C0.301,-0.158 0.3,-0.157 0.3,-0.154C0.3,-0.151 0.301,-0.15 0.304,-0.15C0.307,-0.15 0.308,-0.151 0.308,-0.154C0.308,-0.157 0.307,-0.158 0.304,-0.158ZM0.304,-0.208C0.301,-0.208 0.299,-0.206 0.299,-0.203C0.299,-0.2 0.301,-0.199 0.304,-0.199C0.307,-0.199 0.309,-0.2 0.309,-0.203C0.309,-0.206 0.307,-0.208 0.304,-0.208ZM0.304,-0.258C0.3,-0.258 0.298,-0.256 0.298,-0.252C0.298,-0.249 0.3,-0.247 0.304,-0.247C0.307,-0.247 0.309,-0.249 0.309,-0.252C0.309,-0.256 0.307,-0.258 0.304,-0.258ZM0.304,-0.308C0.3,-0.308 0.298,-0.306 0.298,-0.301C0.298,-0.297 0.3,-0.295 0.304,-0.295C0.308,-0.295 0.31,-0.297 0.31,-0.301C0.31,-0.306 0.308,-0.308 0.304,-0.308ZM0.253,0.041L0.252,0.042L0.253,0.043C0.254,0.043 0.254,0.043 0.254,0.042C0.254,0.041 0.254,0.041 0.253,0.041ZM0.253,-0.059C0.252,-0.059 0.251,-0.058 0.251,-0.056C0.251,-0.054 0.252,-0.053 0.253,-0.053C0.255,-0.053 0.256,-0.054 0.256,-0.056C0.256,-0.058 0.255,-0.059 0.253,-0.059ZM0.253,-0.108C0.251,-0.108 0.25,-0.107 0.25,-0.105C0.25,-0.103 0.251,-0.102 0.253,-0.102C0.256,-0.102 0.257,-0.103 0.257,-0.105C0.257,-0.107 0.256,-0.108 0.253,-0.108ZM0.253,-0.158C0.25,-0.158 0.249,-0.157 0.249,-0.154C0.249,-0.151 0.25,-0.15 0.253,-0.15C0.256,-0.15 0.257,-0.151 0.257,-0.154C0.257,-0.157 0.256,-0.158 0.253,-0.158ZM0.253,-0.208C0.25,-0.208 0.249,-0.206 0.249,-0.203C0.249,-0.2 0.25,-0.199 0.253,-0.199C0.256,-0.199 0.258,-0.2 0.258,-0.203C0.258,-0.206 0.256,-0.208 0.253,-0.208ZM0.204,0.042L0.203,0.041L0.202,0.042C0.202,0.043 0.202,0.043 0.203,0.043C0.204,0.043 0.204,0.043 0.204,0.042ZM0.203,-0.059C0.201,-0.059 0.2,-0.058 0.2,-0.056C0.2,-0.054 0.201,-0.053 0.203,-0.053C0.204,-0.053 0.205,-0.054 0.205,-0.056C0.205,-0.058 0.204,-0.059 0.203,-0.059ZM0.203,-0.108C0.2,-0.108 0.199,-0.107 0.199,-0.105C0.199,-0.103 0.2,-0.102 0.203,-0.102C0.205,-0.102 0.206,-0.103 0.206,-0.105C0.206,-0.107 0.205,-0.108 0.203,-0.108ZM0.203,-0.158C0.2,-0.158 0.199,-0.157 0.199,-0.154C0.199,-0.151 0.2,-0.15 0.203,-0.15C0.206,-0.15 0.207,-0.151 0.207,-0.154C0.207,-0.157 0.206,-0.158 0.203,-0.158ZM0.152,0.041L0.151,0.042L0.152,0.043C0.153,0.043 0.153,0.043 0.153,0.042C0.153,0.041 0.153,0.041 0.152,0.041ZM0.152,-0.059C0.151,-0.059 0.15,-0.058 0.15,-0.056C0.15,-0.054 0.151,-0.053 0.152,-0.053C0.154,-0.053 0.155,-0.054 0.155,-0.056C0.155,-0.058 0.154,-0.059 0.152,-0.059ZM0.152,-0.208C0.149,-0.208 0.147,-0.206 0.147,-0.203C0.147,-0.2 0.149,-0.199 0.152,-0.199C0.155,-0.199 0.157,-0.2 0.157,-0.203C0.157,-0.206 0.155,-0.208 0.152,-0.208ZM0.103,0.042L0.102,0.041L0.1,0.042C0.1,0.043 0.101,0.043 0.102,0.043C0.103,0.043 0.103,0.043 0.103,0.042ZM0.102,-0.158C0.099,-0.158 0.098,-0.157 0.098,-0.154C0.098,-0.151 0.099,-0.15 0.102,-0.15C0.105,-0.15 0.106,-0.151 0.106,-0.154C0.106,-0.157 0.105,-0.158 0.102,-0.158ZM0.102,-0.208C0.099,-0.208 0.097,-0.206 0.097,-0.203C0.097,-0.2 0.099,-0.199 0.102,-0.199C0.105,-0.199 0.106,-0.2 0.106,-0.203C0.106,-0.206 0.105,-0.208 0.102,-0.208ZM0.051,0.041L0.05,0.042C0.05,0.043 0.05,0.043 0.051,0.043C0.052,0.043 0.052,0.043 0.052,0.042C0.052,0.041 0.052,0.041 0.051,0.041ZM0.051,-0.108C0.049,-0.108 0.048,-0.107 0.048,-0.105C0.048,-0.103 0.049,-0.102 0.051,-0.102C0.053,-0.102 0.054,-0.103 0.054,-0.105C0.054,-0.107 0.053,-0.108 0.051,-0.108ZM0.051,-0.158C0.048,-0.158 0.047,-0.157 0.047,-0.154C0.047,-0.151 0.048,-0.15 0.051,-0.15C0.054,-0.15 0.055,-0.151 0.055,-0.154C0.055,-0.157 0.054,-0.158 0.051,-0.158Z" style="fill:rgb(10,77,96);fill-rule:nonzero;"/>
            </g>
            <g transform="matrix(58.3333,0,0,58.3333,475.975,496.509)">
                <path d="M0.412,0.041L0.411,0.042L0.412,0.043C0.413,0.043 0.414,0.043 0.414,0.042C0.413,0.041 0.413,0.041 0.412,0.041ZM0.412,-0.009C0.411,-0.009 0.411,-0.008 0.411,-0.007C0.411,-0.006 0.411,-0.005 0.412,-0.005C0.413,-0.005 0.414,-0.006 0.414,-0.007C0.414,-0.008 0.413,-0.009 0.412,-0.009ZM0.412,-0.059C0.411,-0.059 0.41,-0.058 0.41,-0.056C0.41,-0.054 0.411,-0.053 0.412,-0.053C0.414,-0.053 0.415,-0.054 0.415,-0.056C0.415,-0.058 0.414,-0.059 0.412,-0.059ZM0.412,-0.108C0.41,-0.108 0.409,-0.107 0.409,-0.105C0.409,-0.103 0.41,-0.102 0.412,-0.102C0.415,-0.102 0.416,-0.103 0.416,-0.105C0.416,-0.107 0.415,-0.108 0.412,-0.108ZM0.412,-0.158C0.409,-0.158 0.408,-0.157 0.408,-0.154C0.408,-0.151 0.409,-0.15 0.412,-0.15C0.415,-0.15 0.416,-0.151 0.416,-0.154C0.416,-0.157 0.415,-0.158 0.412,-0.158ZM0.412,-0.208C0.409,-0.208 0.408,-0.206 0.408,-0.203C0.408,-0.2 0.409,-0.199 0.412,-0.199C0.415,-0.199 0.417,-0.2 0.417,-0.203C0.417,-0.206 0.415,-0.208 0.412,-0.208ZM0.412,-0.258C0.409,-0.258 0.407,-0.256 0.407,-0.252C0.407,-0.249 0.409,-0.247 0.412,-0.247C0.416,-0.247 0.418,-0.249 0.418,-0.252C0.418,-0.256 0.416,-0.258 0.412,-0.258ZM0.412,-0.308C0.408,-0.308 0.406,-0.306 0.406,-0.301C0.406,-0.297 0.408,-0.295 0.412,-0.295C0.417,-0.295 0.419,-0.297 0.419,-0.301C0.419,-0.306 0.417,-0.308 0.412,-0.308ZM0.361,0.041L0.36,0.042C0.36,0.043 0.36,0.043 0.361,0.043C0.362,0.043 0.362,0.043 0.362,0.042C0.362,0.041 0.362,0.041 0.361,0.041ZM0.361,-0.059C0.359,-0.059 0.358,-0.058 0.358,-0.056C0.358,-0.054 0.359,-0.053 0.361,-0.053C0.363,-0.053 0.364,-0.054 0.364,-0.056C0.364,-0.058 0.363,-0.059 0.361,-0.059ZM0.361,-0.108C0.359,-0.108 0.358,-0.107 0.358,-0.105C0.358,-0.103 0.359,-0.102 0.361,-0.102C0.363,-0.102 0.364,-0.103 0.364,-0.105C0.364,-0.107 0.363,-0.108 0.361,-0.108ZM0.361,-0.158C0.358,-0.158 0.357,-0.157 0.357,-0.154C0.357,-0.151 0.358,-0.15 0.361,-0.15C0.364,-0.15 0.365,-0.151 0.365,-0.154C0.365,-0.157 0.364,-0.158 0.361,-0.158ZM0.361,-0.208C0.358,-0.208 0.356,-0.206 0.356,-0.203C0.356,-0.2 0.358,-0.199 0.361,-0.199C0.364,-0.199 0.366,-0.2 0.366,-0.203C0.366,-0.206 0.364,-0.208 0.361,-0.208ZM0.361,-0.258C0.358,-0.258 0.356,-0.256 0.356,-0.252C0.356,-0.249 0.358,-0.247 0.361,-0.247C0.364,-0.247 0.366,-0.249 0.366,-0.252C0.366,-0.256 0.364,-0.258 0.361,-0.258ZM0.361,-0.308C0.357,-0.308 0.355,-0.306 0.355,-0.301C0.355,-0.297 0.357,-0.295 0.361,-0.295C0.365,-0.295 0.367,-0.297 0.367,-0.301C0.367,-0.306 0.365,-0.308 0.361,-0.308ZM0.309,0.041L0.308,0.042L0.309,0.043C0.31,0.043 0.311,0.043 0.311,0.042C0.31,0.041 0.31,0.041 0.309,0.041ZM0.309,-0.059C0.308,-0.059 0.307,-0.058 0.307,-0.056C0.307,-0.054 0.308,-0.053 0.309,-0.053C0.311,-0.053 0.312,-0.054 0.312,-0.056C0.312,-0.058 0.311,-0.059 0.309,-0.059ZM0.309,-0.108C0.307,-0.108 0.306,-0.107 0.306,-0.105C0.306,-0.103 0.307,-0.102 0.309,-0.102C0.312,-0.102 0.313,-0.103 0.313,-0.105C0.313,-0.107 0.312,-0.108 0.309,-0.108ZM0.309,-0.158C0.306,-0.158 0.305,-0.157 0.305,-0.154C0.305,-0.151 0.306,-0.15 0.309,-0.15C0.312,-0.15 0.313,-0.151 0.313,-0.154C0.313,-0.157 0.312,-0.158 0.309,-0.158ZM0.309,-0.208C0.306,-0.208 0.305,-0.206 0.305,-0.203C0.305,-0.2 0.306,-0.199 0.309,-0.199C0.312,-0.199 0.314,-0.2 0.314,-0.203C0.314,-0.206 0.312,-0.208 0.309,-0.208ZM0.309,-0.308C0.305,-0.308 0.303,-0.306 0.303,-0.301C0.303,-0.297 0.305,-0.295 0.309,-0.295C0.314,-0.295 0.316,-0.297 0.316,-0.301C0.316,-0.306 0.314,-0.308 0.309,-0.308ZM0.309,-0.357C0.305,-0.357 0.303,-0.355 0.303,-0.351C0.303,-0.346 0.305,-0.344 0.309,-0.344C0.314,-0.344 0.316,-0.346 0.316,-0.351C0.316,-0.355 0.314,-0.357 0.309,-0.357ZM0.258,0.041L0.257,0.042C0.257,0.043 0.257,0.043 0.258,0.043C0.259,0.043 0.259,0.043 0.259,0.042C0.259,0.041 0.259,0.041 0.258,0.041ZM0.258,-0.059C0.256,-0.059 0.255,-0.058 0.255,-0.056C0.255,-0.054 0.256,-0.053 0.258,-0.053C0.26,-0.053 0.261,-0.054 0.261,-0.056C0.261,-0.058 0.26,-0.059 0.258,-0.059ZM0.258,-0.108C0.256,-0.108 0.255,-0.107 0.255,-0.105C0.255,-0.103 0.256,-0.102 0.258,-0.102C0.26,-0.102 0.261,-0.103 0.261,-0.105C0.261,-0.107 0.26,-0.108 0.258,-0.108ZM0.258,-0.158C0.255,-0.158 0.254,-0.157 0.254,-0.154C0.254,-0.151 0.255,-0.15 0.258,-0.15C0.261,-0.15 0.262,-0.151 0.262,-0.154C0.262,-0.157 0.261,-0.158 0.258,-0.158ZM0.258,-0.208C0.255,-0.208 0.253,-0.206 0.253,-0.203C0.253,-0.2 0.255,-0.199 0.258,-0.199C0.261,-0.199 0.263,-0.2 0.263,-0.203C0.263,-0.206 0.261,-0.208 0.258,-0.208ZM0.258,-0.308C0.254,-0.308 0.252,-0.306 0.252,-0.301C0.252,-0.297 0.254,-0.295 0.258,-0.295C0.262,-0.295 0.264,-0.297 0.264,-0.301C0.264,-0.306 0.262,-0.308 0.258,-0.308ZM0.258,-0.357C0.253,-0.357 0.251,-0.355 0.251,-0.351C0.251,-0.346 0.253,-0.344 0.258,-0.344C0.263,-0.344 0.265,-0.346 0.265,-0.351C0.265,-0.355 0.263,-0.357 0.258,-0.357ZM0.206,0.041L0.205,0.042L0.206,0.043C0.207,0.043 0.208,0.043 0.208,0.042C0.207,0.041 0.207,0.041 0.206,0.041ZM0.206,-0.059C0.205,-0.059 0.204,-0.058 0.204,-0.056C0.204,-0.054 0.205,-0.053 0.206,-0.053C0.208,-0.053 0.209,-0.054 0.209,-0.056C0.209,-0.058 0.208,-0.059 0.206,-0.059ZM0.206,-0.108C0.204,-0.108 0.203,-0.107 0.203,-0.105C0.203,-0.103 0.204,-0.102 0.206,-0.102C0.209,-0.102 0.21,-0.103 0.21,-0.105C0.21,-0.107 0.209,-0.108 0.206,-0.108ZM0.206,-0.158C0.203,-0.158 0.202,-0.157 0.202,-0.154C0.202,-0.151 0.203,-0.15 0.206,-0.15C0.209,-0.15 0.21,-0.151 0.21,-0.154C0.21,-0.157 0.209,-0.158 0.206,-0.158ZM0.206,-0.208C0.203,-0.208 0.202,-0.206 0.202,-0.203C0.202,-0.2 0.203,-0.199 0.206,-0.199C0.209,-0.199 0.211,-0.2 0.211,-0.203C0.211,-0.206 0.209,-0.208 0.206,-0.208ZM0.206,-0.308C0.202,-0.308 0.2,-0.306 0.2,-0.301C0.2,-0.297 0.202,-0.295 0.206,-0.295C0.211,-0.295 0.213,-0.297 0.213,-0.301C0.213,-0.306 0.211,-0.308 0.206,-0.308ZM0.206,-0.357C0.202,-0.357 0.2,-0.355 0.2,-0.351C0.2,-0.346 0.202,-0.344 0.206,-0.344C0.211,-0.344 0.213,-0.346 0.213,-0.351C0.213,-0.355 0.211,-0.357 0.206,-0.357ZM0.206,-0.407C0.201,-0.407 0.199,-0.405 0.199,-0.4C0.199,-0.395 0.201,-0.392 0.206,-0.392C0.211,-0.392 0.214,-0.395 0.214,-0.4C0.214,-0.405 0.211,-0.407 0.206,-0.407ZM0.154,-0.059C0.152,-0.059 0.151,-0.058 0.151,-0.056C0.151,-0.054 0.152,-0.053 0.154,-0.053C0.155,-0.053 0.156,-0.054 0.156,-0.056C0.156,-0.058 0.155,-0.059 0.154,-0.059ZM0.154,-0.108C0.152,-0.108 0.151,-0.107 0.151,-0.105C0.151,-0.103 0.152,-0.102 0.154,-0.102C0.156,-0.102 0.157,-0.103 0.157,-0.105C0.157,-0.107 0.156,-0.108 0.154,-0.108ZM0.154,-0.158C0.151,-0.158 0.15,-0.157 0.15,-0.154C0.15,-0.151 0.151,-0.15 0.154,-0.15C0.157,-0.15 0.158,-0.151 0.158,-0.154C0.158,-0.157 0.157,-0.158 0.154,-0.158ZM0.154,-0.208C0.151,-0.208 0.149,-0.206 0.149,-0.203C0.149,-0.2 0.151,-0.199 0.154,-0.199C0.157,-0.199 0.159,-0.2 0.159,-0.203C0.159,-0.206 0.157,-0.208 0.154,-0.208ZM0.154,-0.308C0.15,-0.308 0.148,-0.306 0.148,-0.301C0.148,-0.297 0.15,-0.295 0.154,-0.295C0.158,-0.295 0.16,-0.297 0.16,-0.301C0.16,-0.306 0.158,-0.308 0.154,-0.308ZM0.154,-0.357C0.149,-0.357 0.147,-0.355 0.147,-0.351C0.147,-0.346 0.149,-0.344 0.154,-0.344C0.159,-0.344 0.161,-0.346 0.161,-0.351C0.161,-0.355 0.159,-0.357 0.154,-0.357ZM0.154,-0.407C0.149,-0.407 0.146,-0.405 0.146,-0.4C0.146,-0.395 0.149,-0.392 0.154,-0.392C0.159,-0.392 0.161,-0.395 0.161,-0.4C0.161,-0.405 0.159,-0.407 0.154,-0.407ZM0.155,0.041L0.154,0.042C0.154,0.043 0.154,0.043 0.155,0.043C0.156,0.043 0.156,0.043 0.156,0.042C0.156,0.041 0.156,0.041 0.155,0.041ZM0.103,0.041L0.102,0.042L0.103,0.043C0.104,0.043 0.105,0.043 0.105,0.042C0.104,0.041 0.104,0.041 0.103,0.041ZM0.052,0.041L0.051,0.042C0.051,0.043 0.051,0.043 0.052,0.043C0.053,0.043 0.053,0.043 0.053,0.042C0.053,0.041 0.053,0.041 0.052,0.041ZM0.052,-0.009C0.051,-0.009 0.05,-0.008 0.05,-0.007C0.05,-0.006 0.051,-0.005 0.052,-0.005C0.053,-0.005 0.054,-0.006 0.054,-0.007C0.054,-0.008 0.053,-0.009 0.052,-0.009ZM0.052,-0.059C0.05,-0.059 0.049,-0.058 0.049,-0.056C0.049,-0.054 0.05,-0.053 0.052,-0.053C0.054,-0.053 0.055,-0.054 0.055,-0.056C0.055,-0.058 0.054,-0.059 0.052,-0.059ZM0.052,-0.108C0.05,-0.108 0.049,-0.107 0.049,-0.105C0.049,-0.103 0.05,-0.102 0.052,-0.102C0.054,-0.102 0.055,-0.103 0.055,-0.105C0.055,-0.107 0.054,-0.108 0.052,-0.108ZM0.052,-0.158C0.049,-0.158 0.048,-0.157 0.048,-0.154C0.048,-0.151 0.049,-0.15 0.052,-0.15C0.055,-0.15 0.056,-0.151 0.056,-0.154C0.056,-0.157 0.055,-0.158 0.052,-0.158ZM0.052,-0.208C0.049,-0.208 0.047,-0.206 0.047,-0.203C0.047,-0.2 0.049,-0.199 0.052,-0.199C0.055,-0.199 0.057,-0.2 0.057,-0.203C0.057,-0.206 0.055,-0.208 0.052,-0.208ZM0.052,-0.258C0.049,-0.258 0.047,-0.256 0.047,-0.252C0.047,-0.249 0.049,-0.247 0.052,-0.247C0.055,-0.247 0.057,-0.249 0.057,-0.252C0.057,-0.256 0.055,-0.258 0.052,-0.258ZM0.052,-0.308C0.048,-0.308 0.046,-0.306 0.046,-0.301C0.046,-0.297 0.048,-0.295 0.052,-0.295C0.056,-0.295 0.058,-0.297 0.058,-0.301C0.058,-0.306 0.056,-0.308 0.052,-0.308ZM0.052,-0.357C0.047,-0.357 0.045,-0.355 0.045,-0.351C0.045,-0.346 0.047,-0.344 0.052,-0.344C0.057,-0.344 0.059,-0.346 0.059,-0.351C0.059,-0.355 0.057,-0.357 0.052,-0.357ZM0.052,-0.407C0.047,-0.407 0.044,-0.405 0.044,-0.4C0.044,-0.395 0.047,-0.392 0.052,-0.392C0.057,-0.392 0.059,-0.395 0.059,-0.4C0.059,-0.405 0.057,-0.407 0.052,-0.407ZM0.052,-0.457C0.047,-0.457 0.044,-0.454 0.044,-0.449C0.044,-0.443 0.047,-0.44 0.052,-0.44C0.057,-0.44 0.06,-0.443 0.06,-0.449C0.06,-0.454 0.057,-0.457 0.052,-0.457ZM0.364,-0.506L0.108,-0.506L0.108,-0L0.366,-0L0.37,-0.016L0.367,-0.02L0.128,-0.02L0.128,-0.243L0.322,-0.243L0.325,-0.26L0.323,-0.264L0.128,-0.264L0.128,-0.486L0.363,-0.485L0.367,-0.502L0.364,-0.506ZM0.414,-0.354L0.191,-0.461L0.171,-0.461L0.411,-0.347L0.412,-0.346C0.415,-0.346 0.416,-0.347 0.416,-0.349C0.417,-0.351 0.417,-0.353 0.414,-0.354ZM0.083,-0.503L0.083,-0.512L0.002,-0.551C0,-0.552 -0.002,-0.552 -0.003,-0.549C-0.004,-0.546 -0.004,-0.544 -0.001,-0.543L0.083,-0.503Z" style="fill:rgb(10,77,96);fill-rule:nonzero;"/>
            </g>
        </g>
    </g>
</svg>
